<svg width="67" height="67" viewBox="0 0 67 67" fill="none" xmlns="http://www.w3.org/2000/svg">
<g clip-path="url(#clip0_3_254)">
<path fill-rule="evenodd" clip-rule="evenodd" d="M15.4388 37.2095C15.1847 36.9601 14.9288 36.7107 14.6711 36.4632C12.0432 33.9442 9.43574 31.4224 6.98931 28.721C6.39655 28.0668 5.2836 26.7975 4.16601 26.1443C3.36666 25.6772 2.53936 25.4818 1.78282 25.5785C1.30079 25.64 0.596393 25.8828 0.242782 26.8069C0.183226 26.9623 0.11252 27.2293 0.0846034 27.5699C0.0399367 28.1208 0.0836515 29.1091 0.0976098 29.2458C0.293026 31.2391 0.488436 33.1449 0.8467 35.1167C1.17612 36.9313 1.4013 38.7599 1.75584 40.5717C2.28626 43.2824 2.96931 45.8916 3.965 48.473C4.33443 49.4314 5.41295 49.9088 6.37142 49.5394C7.32896 49.17 7.80726 48.0924 7.43783 47.1339C6.52124 44.7564 5.89684 42.3537 5.40923 39.857C5.05748 38.0619 4.83506 36.2492 4.50843 34.4514C4.29627 33.2817 4.1455 32.1362 4.01709 30.9804L4.23019 31.2195C6.73617 33.9861 9.4041 36.5703 12.0953 39.1498C13.1021 40.1157 14.0746 41.1095 15.0973 42.0596C15.1801 42.1806 15.5625 42.7352 15.7505 42.925C16.0631 43.2414 16.4009 43.4182 16.695 43.5057C17.4422 43.729 18.2007 43.6462 18.8632 42.8087C19.3592 42.1815 19.6448 41.209 19.6234 40.0477C19.5946 38.4518 18.9888 36.3479 18.8604 35.3782C18.0471 29.2431 16.7313 23.1321 16.3814 16.9439C16.3237 15.9185 15.4443 15.133 14.4189 15.1907C13.3934 15.2494 12.6071 16.1287 12.6657 17.1542C13.0202 23.4354 14.3444 29.6395 15.1698 35.8677C15.2145 36.199 15.3206 36.6707 15.4388 37.2095Z" fill="black"/>
<path fill-rule="evenodd" clip-rule="evenodd" d="M31.7007 11.778C29.5902 12.3372 27.476 12.8248 25.7805 14.2746C24.0069 15.7924 23.1052 17.9969 22.7842 20.4535C22.3747 23.5876 22.9237 27.1433 23.2643 29.6772C23.4411 30.9893 23.5165 32.8178 23.899 34.4379C24.2284 35.831 24.7895 37.0788 25.6447 37.9526C26.9884 39.3252 29.0505 39.4638 31.1656 38.6077C33.6093 37.6185 36.0427 35.3359 36.7043 34.0052C37.1622 33.0858 36.7871 31.9673 35.8668 31.5104C34.9474 31.0526 33.8299 31.4276 33.372 32.347C32.9523 33.191 31.3192 34.5301 29.7689 35.1582C29.4227 35.2978 29.0803 35.402 28.7564 35.428C28.588 35.442 28.4196 35.4662 28.3051 35.3499C27.744 34.7757 27.5467 33.8424 27.3839 32.8997C27.1559 31.5858 27.0926 30.2132 26.9539 29.1803C26.6487 26.9144 26.109 23.7384 26.4748 20.9356C26.6711 19.4327 27.115 18.0323 28.2009 17.1036C29.4609 16.026 31.0837 15.7924 32.6536 15.3764C33.6465 15.114 34.2393 14.0941 33.9759 13.1012C33.7135 12.1083 32.6936 11.5155 31.7007 11.778Z" fill="black"/>
<path fill-rule="evenodd" clip-rule="evenodd" d="M31.558 21.5849C29.9231 22.4754 28.1755 23.391 26.4232 24.0201C25.4564 24.3672 24.953 25.4337 25.2991 26.4005C25.6462 27.3673 26.7126 27.8707 27.6795 27.5237C29.6094 26.8313 31.5385 25.8347 33.3382 24.8548C34.2399 24.3635 34.5739 23.2319 34.0826 22.3302C33.5913 21.4276 32.4607 21.0945 31.558 21.5849Z" fill="black"/>
<path fill-rule="evenodd" clip-rule="evenodd" d="M54.035 22.5728C52.6764 20.9294 51.2405 19.3122 49.7237 17.8344C49.6 17.7144 48.0702 16.4544 47.161 15.9835C46.5478 15.6662 46.0043 15.6085 45.6861 15.6392C44.7602 15.7286 44.1953 16.2302 43.9636 17.0881C43.7421 17.9107 43.6621 18.7678 43.6621 19.6425C42.2858 17.0621 41.0268 14.4081 40.2619 11.6137C40.1986 11.3829 40.1474 11.2749 40.139 11.2554C39.8813 10.6859 39.5155 10.4923 39.3853 10.416C38.745 10.0401 38.1681 10.1034 37.6814 10.3221C37.6219 10.3481 36.3098 10.9306 36.6234 12.4186C36.6485 12.5386 36.8626 13.3938 36.9249 13.7279C36.9798 14.0182 37.0989 14.2797 37.2655 14.5012C38.5478 18.1843 40.5094 21.6637 42.3919 25.0611C42.7986 25.7953 43.1159 26.5518 43.3253 27.3642C43.3867 27.6015 43.4118 28.1384 43.4658 28.4018C43.5579 28.8475 43.7403 29.1462 43.8566 29.2988C44.4614 30.0935 45.2068 30.1745 45.8945 29.9707C46.1886 29.8842 46.7776 29.686 47.1358 28.8326C47.9417 26.9157 47.8505 24.7987 47.617 22.6658C47.5481 22.0349 47.4625 21.404 47.4104 20.7805C49.0659 22.4258 50.6152 24.2403 52.0715 26.054C52.2316 26.2531 53.8526 28.0659 54.2835 28.3357C55.3611 29.0132 56.1976 28.5041 56.5559 28.2008C57.1021 27.7374 57.5321 26.9418 57.707 25.9284C57.9322 24.6173 57.7544 22.8129 57.7368 22.087C57.6186 17.2016 57.4417 12.0948 56.3446 7.32473C56.1148 6.32346 55.1154 5.69809 54.1141 5.92794C53.1128 6.15778 52.4875 7.15816 52.7174 8.15851C53.7587 12.6885 53.9029 17.5394 54.0154 22.1773C54.0182 22.2843 54.0257 22.4183 54.035 22.5728Z" fill="black"/>
<path fill-rule="evenodd" clip-rule="evenodd" d="M61.4717 6.08714C62.1463 9.34874 62.8219 12.5805 63.263 15.9343C63.397 16.9532 64.3322 17.6716 65.3511 17.5376C66.3692 17.4036 67.0876 16.4684 66.9536 15.4494C66.332 10.7194 65.2563 6.22858 64.3555 1.56278C64.0084 -0.240638 62.2943 0.0115676 62.1892 0.0301787C61.9574 0.0711231 60.6947 0.340051 60.6528 1.8187C60.65 1.90897 60.7105 2.54728 60.7207 2.79481C60.7431 3.36152 60.7319 3.91522 60.703 4.48286C60.6695 5.13704 60.9776 5.72981 61.4717 6.08714Z" fill="black"/>
<path fill-rule="evenodd" clip-rule="evenodd" d="M66.2884 25.3207C66.4773 24.7456 66.3814 24.0887 65.9757 23.5797C65.3346 22.7766 64.163 22.6454 63.3599 23.2866C62.6182 23.8784 62.4796 24.5996 62.5792 25.4817C62.6945 26.5026 63.6177 27.2377 64.6385 27.1213C65.5718 27.0162 66.266 26.2345 66.2884 25.3207Z" fill="black"/>
<path fill-rule="evenodd" clip-rule="evenodd" d="M31.1552 61.2216C30.9654 60.8196 30.8128 60.5023 30.7765 60.4343C29.0475 57.2007 27.1715 54.0098 25.1289 50.9641C24.5567 50.1107 23.4 49.8828 22.5467 50.4551C21.6934 51.0273 21.4654 52.1841 22.0377 53.0374C24.0114 55.9798 25.8231 59.0646 27.4944 62.1894C27.6219 62.4276 28.4715 64.5446 29.0782 65.4277C29.6282 66.2271 30.3187 66.5127 30.7142 66.5714C31.3423 66.6644 32.325 66.4392 33.1224 65.3747C34.1637 63.9853 35.5139 60.2734 35.7363 59.6574C36.1439 58.5239 36.4892 57.3347 36.8093 56.178C37.416 53.9837 37.765 51.7504 38.0767 49.5003C38.2181 48.4823 37.5063 47.5424 36.4883 47.401C35.4712 47.2605 34.5304 47.9724 34.3899 48.9895C34.1005 51.0767 33.785 53.15 33.222 55.1851C32.9261 56.2524 32.6097 57.3514 32.2337 58.3974C32.1202 58.711 31.6791 60.0063 31.1552 61.2216Z" fill="black"/>
</g>
<defs>
<clipPath id="clip0_3_254">
<rect width="67" height="67" fill="white"/>
</clipPath>
</defs>
</svg>
