<svg width="43" height="37" viewBox="0 0 43 37" fill="none" xmlns="http://www.w3.org/2000/svg">
<path d="M21.0761 1.10859C20.2873 1.72837 18.766 3.7004 17.7518 5.44705L15.8925 8.65864L9.80739 9.10939C2.70808 9.67283 1.24315 10.1236 0.397995 11.9829C-0.616191 14.1803 0.17262 15.7016 4.34205 19.9274C6.53945 22.0684 8.34245 24.2095 8.34245 24.6039C8.34245 24.9983 7.66633 27.5901 6.87751 30.2946C6.03236 33.0554 5.52527 35.7599 5.75064 36.267C6.25773 37.6756 8.34245 37.1122 13.6951 34.0696C16.1742 32.661 18.4843 31.4778 18.766 31.4778C19.1041 31.4778 20.8507 32.2666 22.7101 33.1681C26.6541 35.0838 28.5698 35.2529 30.3728 33.7879C31.4997 32.8864 31.7251 32.0976 31.8941 28.4916L32.1195 24.2095L35.6128 22.0121C40.1203 19.0259 42.036 17.2792 42.4867 15.4199C43.1628 12.6027 39.6695 10.687 33.8661 10.6307C30.4292 10.6307 28.7389 9.78551 28.2881 7.98252C27.6683 5.44705 26.0344 1.8974 24.9638 0.883217C23.7243 -0.356342 22.8791 -0.299999 21.0761 1.10859ZM22.9918 8.71499C22.9918 9.16574 22.5974 9.5038 22.1466 9.5038C21.1888 9.5038 21.1325 9.39111 21.6396 8.15155C22.034 7.13736 22.9918 7.47543 22.9918 8.71499ZM12.8499 14.8564C12.8499 15.5889 11.4977 18.5188 11.1596 18.5188C10.4835 18.5188 7.21558 15.7016 7.21558 15.1382C7.21558 14.8564 7.77901 14.5747 8.51148 14.462C9.6947 14.293 12.8499 14.5747 12.8499 14.8564ZM23.1608 15.0818C24.6258 15.6453 24.9075 16.265 25.5273 19.6457C25.8653 21.5613 25.809 21.674 22.8228 23.308L19.7239 24.942L17.4701 23.4207L15.16 21.8994L16.0052 19.4766C17.5265 15.0818 19.6675 13.7859 23.1608 15.0818ZM34.4859 16.4904C34.1478 17.3919 31.556 18.6315 30.8799 18.2371C30.6545 18.1244 30.3165 17.4483 30.1474 16.8285C29.8657 15.8143 30.1474 15.7016 32.3448 15.7016C34.1478 15.7016 34.7113 15.8706 34.4859 16.4904ZM13.4134 27.7591C13.4134 27.9282 13.188 28.2099 12.8499 28.3789C12.5682 28.548 12.2865 28.4353 12.2865 28.1536C12.2865 27.8155 12.5682 27.5338 12.8499 27.5338C13.188 27.5338 13.4134 27.6465 13.4134 27.7591Z" fill="black"/>
</svg>
