<svg width="46" height="39" viewBox="0 0 46 39" fill="none" xmlns="http://www.w3.org/2000/svg">
<path d="M19.6697 6.88178V13.7636L16.0792 11.9683C14.1044 11.0109 12.2493 10.1731 11.8903 10.1731C10.5139 10.1731 11.4714 12.0282 14.0446 14.3021C15.8997 15.9179 16.5579 16.8155 16.0194 16.995C15.5406 17.1745 12.01 18.132 8.06042 19.0895C0.699903 20.8847 -0.796137 21.6627 0.340853 22.7997C0.759744 23.2185 3.63214 23.039 10.0352 22.0816C15.0619 21.3635 19.3106 20.9446 19.4902 21.1241C19.6697 21.3635 18.6524 23.4579 17.276 25.8516C15.8398 28.2452 14.643 30.3995 14.5233 30.5791C14.4036 30.8184 14.7028 31.2972 15.1217 31.6562C15.8398 32.2546 16.4382 31.9554 18.3532 30.2799C19.6697 29.083 20.9862 28.1256 21.2854 28.1256C21.5846 28.1256 22.183 29.9208 22.6618 32.1349C23.6791 37.2813 24.3972 38.897 25.7137 38.897C27.3294 38.897 27.6286 37.042 27.1499 30.1602C26.9105 26.6894 26.9105 23.9366 27.2097 23.9366C27.5089 23.9366 29.9026 24.8941 32.5356 26.0311C37.7419 28.3051 39.4174 28.6043 39.4174 27.2878C39.4174 26.0909 38.46 25.2532 33.8522 22.0816C31.638 20.6454 29.8428 19.269 29.8428 19.0895C29.8428 18.9099 32.8947 17.8926 36.6049 16.8155C43.2473 14.9006 46 13.6439 46 12.5667C46 11.6691 42.23 11.8486 36.2458 12.9258C33.3734 13.4644 30.8002 13.7636 30.6207 13.5242C30.4412 13.3447 30.8601 11.7888 31.5782 10.1132C34.271 3.59049 32.5955 2.99208 28.4066 9.03608C26.8507 11.3699 25.2948 13.0455 25.0554 12.7463C24.8161 12.5069 24.1578 10.1132 23.5594 7.4802C22.3626 1.85509 21.5846 0 20.4476 0C19.8492 0 19.6697 1.55588 19.6697 6.88178Z" fill="black"/>
</svg>
