<svg width="512" height="512" viewBox="0 0 512 512" fill="none" xmlns="http://www.w3.org/2000/svg">
<g filter="url(#filter0_d_3_30)">
<rect width="512" height="512" fill="white"/>
<path d="M1.23224 -13C1.23224 44.0526 1.84016 66.9806 1.84016 127.656M1.84016 127.656C1.84016 188.331 1.74617 298.917 1.23224 373.242C0.71831 447.568 0.319554 519.913 0.319554 519.913C0.319554 530.411 -0.804583 518.023 -0.722591 512.437C-0.620101 505.454 0.3634 306.796 0.3634 289.454C0.3634 272.111 1.23224 183.829 1.84016 127.656Z" stroke="black" stroke-width="6" stroke-miterlimit="10" stroke-linecap="round" stroke-linejoin="round"/>
<path d="M426.793 511.73C510.238 511.73 498.583 511.73 526 511.73C525.528 512.004 521.277 513.048 519.523 513.26C517.33 513.524 459.801 513.38 447.523 513.38C405.493 513.38 215.627 512.393 203.201 512.393M426.793 511.73C426.793 511.73 225.533 513.38 193.434 513.38C161.335 513.38 168.927 513.425 101.163 513.38C50.5004 513.347 -10.08 513.38 -14.1567 513.38C-18.2333 513.38 -16.7291 511.401 -16.7291 511.401C11.7665 512.393 61.3593 512.393 126.492 512.393C148.936 512.393 175.189 512.393 203.201 512.393M426.793 511.73C365.791 511.73 279.336 512.393 203.201 512.393" stroke="black" stroke-width="6" stroke-miterlimit="10" stroke-linecap="round" stroke-linejoin="round"/>
<path d="M511.447 257.672C511.447 324.066 512.8 365.84 512.8 409.251C512.8 452.663 512.109 526.207 512.109 526.207C512.109 526.207 510.517 529.306 510.517 523.25C510.517 517.194 511.558 474.14 511.447 412.266C511.335 350.392 511.34 285.557 511.447 257.672ZM511.447 257.672C511.446 226.374 510.724 162.441 510.767 126.864C510.814 86.9707 510.767 29.5211 510.767 -8.99997" stroke="black" stroke-width="6" stroke-miterlimit="10" stroke-linecap="round" stroke-linejoin="round"/>
<path d="M-6.00031 0.862164C23.2193 0.862164 48.7128 0.862164 63.744 0.862164M63.744 0.862164C78.7752 0.862164 145.513 1.15368 173.772 1.15369M63.744 0.862164C63.744 0.862164 96.3401 -0.045361 115.451 -0.045361C134.562 -0.045361 173.772 1.15369 173.772 1.15369M531 1.15369C501.093 1.15369 514.921 0.862161 485.216 0.862161C468.284 0.862161 447.571 1.34803 417.877 1.15369M253.314 -0.045361C273.864 -0.0172853 381.276 0.914142 417.877 1.15369M253.314 -0.045361C232.061 -0.0743976 202.03 1.15369 173.772 1.15369M253.314 -0.045361C253.314 -0.045361 304.843 -0.045361 333.703 -0.045361M417.877 1.15369C417.877 1.15369 362.563 -0.045361 333.703 -0.045361M173.772 1.15369C191.092 1.15369 231.25 1.15369 253.314 1.15369C275.378 1.15369 316.1 0.354323 333.703 -0.045361" stroke="black" stroke-width="6" stroke-miterlimit="10" stroke-linecap="round" stroke-linejoin="round"/>
<rect x="48" y="56" width="416" height="400" fill="#494848" fill-opacity="0.19" stroke="black" stroke-width="4"/>
<g filter="url(#filter1_d_3_30)">
<rect x="-19" y="87" width="90.0111" height="90.0111" rx="45.0056" fill="#FFDC58" stroke="black" stroke-width="2"/>
<path fill-rule="evenodd" clip-rule="evenodd" d="M24.7976 159.565C24.797 159.556 24.7897 159.549 24.7807 159.549C23.6101 159.52 22.412 159.406 21.2331 159.075C20.8022 158.954 20.3621 158.836 19.948 158.636C19.2188 158.289 18.5411 157.792 18.0077 157.176C17.7385 156.863 17.5079 156.55 17.3015 156.179C17.0851 155.807 16.9589 155.377 16.9086 154.944C16.8576 154.56 16.8986 154.164 16.9931 153.79C17.0957 153.415 17.2785 153.074 17.4917 152.762C18.0643 151.976 19.0348 151.505 19.9406 151.592C20.2247 151.61 20.1843 151.756 20.0021 151.979C19.8075 152.176 19.5452 152.578 19.2536 152.798C18.9732 152.988 18.811 153.275 18.63 153.492C18.4628 153.728 18.3552 153.988 18.3074 154.253C18.2359 154.512 18.2228 154.792 18.2782 155.082C18.3354 155.371 18.479 155.659 18.6742 155.999C18.9117 156.376 19.2387 156.705 19.616 156.972C20.0003 157.234 20.4292 157.436 20.8713 157.613C21.8486 158.001 22.9477 158.17 24.0581 158.24C24.7438 158.279 25.4401 158.289 26.1252 158.25C27.1653 158.189 28.2141 158.06 29.1995 157.755C29.9716 157.539 30.6866 157.209 31.3686 156.834C31.5203 156.752 31.6614 156.662 31.8094 156.574C32.359 156.248 32.5654 156.189 32.8153 156.279C32.8712 156.299 32.9353 156.31 32.98 156.335C33.1212 156.405 33.0167 156.721 32.6369 157.082C32.0705 157.608 31.409 158.074 30.6891 158.448C30.3285 158.632 29.958 158.811 29.5725 158.948C29.1833 159.071 28.7867 159.174 28.3869 159.255C27.2068 159.503 25.9996 159.583 24.8149 159.582C24.8057 159.582 24.7981 159.575 24.7976 159.565Z" fill="#231F20"/>
<path fill-rule="evenodd" clip-rule="evenodd" d="M28.0058 160.007C28.0042 160.003 27.9994 160 27.9948 160.001C27.3602 160.169 26.7145 160.289 26.067 160.388C25.8277 160.421 25.5933 160.452 25.3533 160.484C24.5078 160.545 23.6573 160.526 22.8193 160.409C22.4463 160.36 22.0745 160.294 21.7077 160.216C21.2427 160.099 20.754 159.979 20.3574 159.674C20.2312 159.584 20.3312 159.469 20.5103 159.398C20.6937 159.324 20.9299 159.306 21.1662 159.381C21.9918 159.691 22.897 159.83 23.8252 159.912C24.3835 159.954 24.9672 159.892 25.5348 159.81C26.1628 159.739 26.7857 159.609 27.403 159.455C27.7835 159.365 28.1572 159.24 28.5314 159.124L29.3744 158.825C29.6499 158.713 29.9234 158.594 30.1932 158.472C30.606 158.268 30.9896 158.027 31.3894 157.812L31.6474 157.661C31.9769 157.483 32.1074 157.469 32.2355 157.523C32.2647 157.536 32.2989 157.545 32.3213 157.561C32.3953 157.613 32.3026 157.756 32.0882 157.943C31.4559 158.507 30.6931 158.97 29.8793 159.333C29.2844 159.618 28.6556 159.837 28.0169 160.013C28.0122 160.014 28.0074 160.012 28.0058 160.007Z" fill="#231F20"/>
<path fill-rule="evenodd" clip-rule="evenodd" d="M29.2373 164.002C29.2421 164.006 29.249 164.006 29.2536 164.002C29.4522 163.83 29.6226 163.588 29.779 163.335C29.84 163.244 29.8623 163.127 29.9195 163.03C30.1148 162.678 30.287 162.297 30.4579 161.903C30.54 161.731 30.5997 161.548 30.6668 161.365C30.7576 161.133 30.816 160.869 31.0771 160.68C31.1517 160.621 31.2375 160.738 31.3159 160.88C31.3905 161.03 31.4812 161.154 31.4576 161.275C31.3445 161.664 31.2954 162.169 31.015 162.606C30.8633 162.872 30.8011 163.188 30.6656 163.479C30.522 163.8 30.3292 164.109 30.1135 164.403C29.9581 164.572 29.8219 164.751 29.6329 164.892C29.4977 165.002 29.3524 165.099 29.199 165.182L29.1959 165.183C29.0467 165.279 28.8788 165.328 28.7159 165.389C28.591 165.447 28.466 165.486 28.3361 165.522C28.2086 165.556 28.0743 165.617 27.9425 165.627C27.8847 165.635 27.8275 165.636 27.7685 165.631C27.5503 165.604 27.4862 165.538 27.4701 165.318C27.4657 165.272 27.4589 165.226 27.4589 165.184C27.4595 165.051 27.5583 164.884 27.6852 164.823C28.0737 164.631 28.3628 164.567 28.6457 164.429C28.8318 164.307 29.045 164.205 29.2195 164.004C29.224 163.999 29.2319 163.998 29.2373 164.002Z" fill="#231F20"/>
<path fill-rule="evenodd" clip-rule="evenodd" d="M19.4616 153.046C19.4564 153.039 19.4468 153.036 19.4384 153.04C19.2854 153.103 19.1066 153.173 18.9517 153.293C18.8945 153.338 18.8603 153.403 18.8031 153.45C18.5942 153.613 18.3884 153.805 18.2367 154.031C18.1807 154.13 18.1459 154.248 18.1528 154.35C18.149 154.497 18.2013 154.575 18.0931 154.687C18.0545 154.725 17.8146 154.838 17.5466 154.866C17.288 154.91 16.9498 154.786 16.9231 154.615C16.8528 154.308 16.9131 154.039 17.007 153.815C17.0978 153.586 17.2383 153.397 17.4074 153.238C17.6138 153.056 17.7051 152.806 17.8854 152.612C18.0856 152.405 18.307 152.219 18.5594 152.066C18.7073 151.967 18.8826 151.9 19.048 151.826C19.3078 151.718 19.5922 151.671 19.8729 151.649C19.8763 151.649 19.8796 151.649 19.883 151.649C19.9967 151.647 20.113 151.619 20.2317 151.614C20.348 151.62 20.4711 151.626 20.5929 151.646C20.6489 151.65 20.6899 151.68 20.7347 151.708C20.8901 151.831 20.8938 151.939 20.7825 152.161C20.7571 152.212 20.7334 152.262 20.7048 152.309C20.6091 152.465 20.4655 152.575 20.3542 152.635C20.0085 152.83 19.9905 152.888 19.8444 152.922C19.7533 152.942 19.6223 152.982 19.4865 153.052C19.4779 153.057 19.4672 153.054 19.4616 153.046Z" fill="#231F20"/>
<path fill-rule="evenodd" clip-rule="evenodd" d="M8.78409 142.592C8.78731 142.588 8.7873 142.583 8.78407 142.579C7.29673 140.854 5.95651 138.985 4.88481 136.961C4.67778 136.597 4.49811 136.22 4.32155 135.84C4.13442 135.465 3.96594 135.082 3.82233 134.688C2.72565 131.947 2.27741 128.953 2.49625 126.027C2.53168 125.376 2.63986 124.731 2.71819 124.085C2.85745 123.449 2.93516 122.8 3.11857 122.181C3.48474 120.571 4.11017 118.971 5.0794 117.62C5.38403 117.2 5.41138 117.308 5.26342 117.724C5.10924 118.14 4.85061 118.893 4.50744 119.747C4.35574 120.127 4.22146 120.514 4.10147 120.905C3.98024 121.293 3.89817 121.702 3.78254 122.096C3.66939 122.493 3.56743 122.892 3.49967 123.298C3.42879 123.704 3.32186 124.103 3.27896 124.513C3.01909 126.141 2.99982 127.802 3.15835 129.452C3.34673 131.432 3.96345 133.44 4.82388 135.285C5.75953 137.322 6.95816 139.247 8.36755 141.012C9.22363 142.106 10.1493 143.15 11.1229 144.146C12.5907 145.663 14.1655 147.093 15.7707 148.448C17.0197 149.501 18.2905 150.477 19.5469 151.501C19.8223 151.729 20.0996 151.942 20.3682 152.183C21.3734 153.066 21.6451 153.409 21.7446 153.716C21.7682 153.785 21.808 153.867 21.8136 153.914C21.8298 154.076 21.3809 153.765 20.6305 153.155C18.3893 151.36 15.9628 149.501 13.6563 147.462C11.9475 145.948 10.2902 144.347 8.78412 142.605C8.78088 142.602 8.78087 142.596 8.78409 142.592Z" fill="#231F20"/>
<path fill-rule="evenodd" clip-rule="evenodd" d="M5.80799 116.439C5.8182 116.444 5.83015 116.441 5.83685 116.432C6.81294 115.131 7.96149 113.986 9.21429 112.98C10.5012 112.012 11.8789 111.178 13.3343 110.509C16.255 109.211 19.4431 108.504 22.6535 108.604C23.8248 108.64 24.9936 108.775 26.1238 109C26.6933 109.112 27.2609 109.248 27.8235 109.414C28.3862 109.577 28.9364 109.815 29.4897 110.018C31.407 110.856 33.1129 112.147 34.4732 113.705C35.8397 115.263 36.8698 117.077 37.5761 118.987C39.011 122.809 39.2864 126.958 38.7517 130.922C38.5379 132.688 38.1624 134.431 37.6986 136.14C37.2503 137.856 36.6616 139.523 36.0362 141.16C35.2298 143.264 34.2625 145.307 33.1838 147.284C32.1139 149.267 30.8978 151.166 29.578 152.979C28.7505 154.107 28.7095 153.845 29.177 152.743C29.4163 152.197 29.7545 151.423 30.1866 150.511C30.6031 149.59 31.1192 148.533 31.7085 147.408C32.7592 145.413 33.6588 143.349 34.5198 141.28C35.3629 139.202 36.0828 137.077 36.6261 134.911C37.7228 130.591 38.0616 126.05 37.0172 121.717C36.6989 120.43 36.2519 119.161 35.6625 117.955C35.0707 116.749 34.3041 115.629 33.4095 114.631C32.5118 113.637 31.4754 112.759 30.3047 112.11C29.1359 111.46 27.8944 110.962 26.5714 110.655C20.7834 109.207 14.3315 110.713 9.69549 114.519C8.27864 115.692 7.04706 117.094 6.14311 118.688C5.94044 119.097 5.72285 119.501 5.5295 119.915L5.0539 121.201C4.81641 122.096 4.56898 122.992 4.44837 123.912L4.36195 124.432L4.31843 124.956L4.23513 126.006L4.24196 127.06L4.24756 127.587L4.29667 128.112C4.3806 129.518 4.70513 130.9 5.10426 132.251C5.51209 133.604 6.10084 134.897 6.74118 136.157C7.41137 137.403 8.17109 138.6 8.99732 139.747C11.5948 143.308 14.7928 146.267 18.0716 149.163C18.7965 149.802 19.5189 150.412 20.2407 151.076C22.9221 153.51 23.6507 154.578 23.7906 155.444C23.8211 155.641 23.854 155.889 23.8378 156.002C23.8217 156.1 23.7608 156.09 23.6563 156.003C23.5469 155.914 23.4331 155.743 23.2006 155.523C22.7735 155.077 22.0635 154.382 21.0806 153.519C18.135 150.991 14.9656 148.42 12.0666 145.445C9.17326 142.481 6.46515 139.109 4.68523 135.148C4.02188 133.683 3.52515 132.133 3.18073 130.546C2.82947 128.956 2.73994 127.312 2.7903 125.684C2.85061 124.049 3.17513 122.444 3.59851 120.878C4.08956 119.293 4.83595 117.796 5.77872 116.448C5.78527 116.438 5.79752 116.435 5.80799 116.439Z" fill="#231F20"/>
<path fill-rule="evenodd" clip-rule="evenodd" d="M21.9002 158.534C21.8993 158.543 21.9056 158.552 21.9148 158.553C23.4948 158.84 25.1744 158.792 26.8212 158.524C27.4199 158.419 28.0267 158.252 28.6074 158.125C29.584 157.872 30.5794 157.406 31.4877 156.867C32.3941 156.32 33.2396 155.649 33.829 154.834C34.3257 154.099 34.442 153.218 34.0012 152.496C33.727 152.038 33.267 151.66 32.7709 151.35C32.2642 151.052 31.7239 150.78 31.1495 150.575C30.7926 150.455 30.8461 150.338 31.2135 150.234C31.5679 150.153 32.2971 150.039 33.0401 150.371C33.6885 150.66 34.327 151.053 34.8442 151.685C34.9758 151.837 35.0815 152.01 35.1729 152.195C35.3672 152.586 35.4908 153.012 35.5256 153.448C35.5312 153.665 35.4939 153.878 35.4715 154.093C35.3074 154.933 34.8703 155.6 34.3966 156.153C33.9191 156.713 33.3571 157.135 32.7789 157.517C32.0851 157.967 31.3658 158.373 30.613 158.734C30.2362 158.915 29.8495 159.081 29.4485 159.224C29.2502 159.3 29.0351 159.354 28.8299 159.418L28.2312 159.549C26.4855 159.937 24.6758 160.141 22.866 159.988C21.7538 159.891 20.6472 159.658 19.5934 159.25C18.7976 158.932 18.0472 158.482 17.387 157.911C16.7361 157.331 16.2039 156.582 15.9409 155.712C15.7507 155.039 15.7221 154.282 15.9515 153.594C16.1877 152.909 16.6298 152.319 17.157 151.867C17.3895 151.666 17.6251 151.482 17.8893 151.328C18.3767 151.04 18.7429 150.955 19.0003 150.922C19.2626 150.902 19.4317 150.961 19.5834 151.086C19.6524 151.142 19.7345 151.191 19.7793 151.249C19.9297 151.451 19.5797 151.742 19.0034 152.106C18.1448 152.634 17.423 153.366 17.226 154.147C17.1066 154.536 17.1284 154.92 17.2197 155.326C17.3304 155.732 17.5685 156.128 17.8595 156.498C18.782 157.587 20.3101 158.243 21.8853 158.515C21.8946 158.516 21.9011 158.525 21.9002 158.534Z" fill="#231F20"/>
<path fill-rule="evenodd" clip-rule="evenodd" d="M20.2433 155.594C20.2406 155.602 20.2445 155.611 20.2522 155.614C21.1277 155.979 22.1007 156.217 23.0957 156.334C23.4613 156.379 23.8312 156.373 24.1999 156.387C25.5017 156.444 26.8327 156.348 28.1078 156.023C28.6717 155.877 29.2263 155.678 29.7342 155.417C30.3876 155.075 30.9565 154.633 31.4613 154.143C31.6217 153.991 31.741 154.078 31.7634 154.347C31.7995 154.622 31.6863 155.098 31.3146 155.437C29.9953 156.585 28.3627 157.12 26.7376 157.279C25.7641 157.372 24.76 157.521 23.7585 157.493C22.6612 157.46 21.5577 157.317 20.4952 156.974C19.843 156.764 19.2052 156.483 18.6164 156.104C18.1731 155.813 17.7591 155.461 17.4184 155.037C17.2592 154.816 17.0995 154.596 16.9807 154.349C16.8446 154.128 16.7451 153.775 16.7513 153.476C16.7582 152.989 16.944 152.557 17.1821 152.196C17.424 151.835 17.7274 151.529 18.0774 151.28C18.2291 151.167 18.387 151.067 18.5611 150.982C19.225 150.686 19.5284 150.801 19.6776 151.063C19.7131 151.124 19.7547 151.182 19.7721 151.242C19.8188 151.444 19.6037 151.629 19.2841 151.805C18.7967 152.061 18.3379 152.482 18.0886 152.917C17.9636 153.132 17.9089 153.342 17.9213 153.481C17.9232 153.553 17.945 153.608 17.9729 153.667C18.0065 153.739 18.0998 153.889 18.1563 153.998C18.5911 154.677 19.3524 155.219 20.2342 155.574C20.2421 155.577 20.2461 155.586 20.2433 155.594Z" fill="#231F20"/>
<path fill-rule="evenodd" clip-rule="evenodd" d="M23.8178 161.282C23.8166 161.292 23.8226 161.3 23.8318 161.303C24.6474 161.492 25.5336 161.52 26.4174 161.441C26.7438 161.418 27.0609 161.327 27.3854 161.274C28.5337 161.087 29.6683 160.729 30.7538 160.254C31.23 160.032 31.6857 159.761 32.0985 159.452C32.6437 159.062 33.0777 158.579 33.5259 158.13C33.677 157.994 33.8119 158.078 33.8759 158.336C33.9058 158.463 33.9313 158.65 33.8933 158.844C33.8486 159.023 33.7622 159.222 33.6241 159.399C32.589 160.553 31.3009 161.38 29.8741 161.816C29.0192 162.061 28.1681 162.417 27.2667 162.573C26.2825 162.752 25.2692 162.814 24.2577 162.713C23.6372 162.647 23.0124 162.5 22.4274 162.292C21.5402 161.966 20.7022 161.466 20.0071 160.814C19.4644 160.316 18.9652 159.755 18.6064 159.097C18.5331 158.95 18.461 158.806 18.3994 158.652C18.2197 158.066 18.3223 157.842 18.5685 157.66C18.6251 157.618 18.6761 157.57 18.7301 157.542C18.9036 157.451 19.1672 157.626 19.396 157.945C19.7323 158.42 20.0251 158.869 20.359 159.279C20.6941 159.689 21.0889 160.042 21.5365 160.341C22.1897 160.78 22.9992 161.101 23.8031 161.262C23.8126 161.264 23.819 161.273 23.8178 161.282Z" fill="#231F20"/>
<path fill-rule="evenodd" clip-rule="evenodd" d="M20.3782 123.143C20.3865 123.141 20.392 123.133 20.3914 123.124C20.37 122.818 20.3685 122.503 20.3856 122.181L20.4223 121.677L20.4826 121.313C20.5174 121.182 20.5646 121.055 20.6051 120.926C20.7779 120.406 21.182 120.068 21.6607 119.969C22.1444 119.873 22.6486 120.039 23.0365 120.392C23.1304 120.484 23.2286 120.578 23.3063 120.682C23.3927 120.786 23.4748 120.887 23.5102 120.955C23.6091 121.109 23.6874 121.261 23.762 121.413C23.91 121.715 24.0238 122.013 24.1257 122.31C24.3178 122.91 24.4788 123.531 24.5516 124.148C24.8581 126.616 24.4869 129.104 23.407 131.339C23.2087 131.746 22.9768 132.14 22.7207 132.522C22.5908 132.714 22.4167 132.908 22.2637 133.098C22.0816 133.273 21.8963 133.451 21.6881 133.602C20.8369 134.218 19.6968 134.381 18.7623 134.159C17.9224 133.987 17.1776 133.631 16.5019 133.206C15.8248 132.775 15.2162 132.275 14.6654 131.693C14.1058 131.093 13.6713 130.434 13.3057 129.733C12.9445 129.033 12.6473 128.292 12.4981 127.491C12.3514 126.7 12.3247 125.812 12.712 124.989C12.8954 124.59 13.1478 124.231 13.5146 123.929C13.8739 123.627 14.3763 123.451 14.8531 123.466C15.8205 123.498 16.5491 124.081 17.0987 124.613C17.6663 125.165 18.1357 125.792 18.546 126.443C19.9964 128.764 20.8071 131.368 21.5768 133.868C22.0797 135.482 22.5211 137.14 22.8021 138.834C22.9339 139.682 23.0353 140.537 23.0614 141.397C23.0875 142.256 23.0434 143.115 22.9625 143.965C22.8332 145.026 22.6765 144.856 22.5118 143.964C22.421 143.488 22.3017 142.87 22.1643 142.153C22.0001 141.412 21.8354 140.559 21.6781 139.63C21.3971 137.983 20.9277 136.37 20.4248 134.746C19.9349 133.104 19.4456 131.472 18.8512 129.918C18.2557 128.368 17.5314 126.848 16.4876 125.669C16.2302 125.376 15.9392 125.098 15.6663 124.91C15.3828 124.723 15.08 124.607 14.8233 124.608C14.5659 124.601 14.3415 124.693 14.1239 124.903C13.9063 125.114 13.7216 125.431 13.6284 125.737C13.3865 126.514 13.573 127.51 13.9398 128.408C14.3048 129.313 14.8506 130.197 15.5152 130.892C16.2103 131.595 17.0465 132.201 17.9324 132.603C18.8139 132.984 19.7875 133.166 20.5491 132.81C20.97 132.627 21.3318 132.305 21.6309 131.901C21.9349 131.461 22.2034 130.982 22.426 130.48C22.8587 129.469 23.1472 128.379 23.2696 127.271C23.4033 126.163 23.3753 125.036 23.1795 123.952C23.0688 123.416 22.9227 122.887 22.7157 122.381C22.6131 122.131 22.4969 121.893 22.3657 121.687C22.2569 121.517 22.2016 121.451 22.0741 121.379C21.9237 121.293 21.7347 121.383 21.675 121.54C21.642 121.613 21.6141 121.696 21.6023 121.771C21.5749 121.896 21.5444 122.077 21.5388 122.235C21.5065 122.898 21.5817 123.595 21.7111 124.274C21.8422 124.953 22.03 125.627 22.2923 126.259C22.5485 126.874 22.8973 127.52 23.343 127.828C23.7117 128.054 24.1668 128.164 24.6038 128.082C25.0465 128.007 25.481 127.77 25.8621 127.457C26.62 126.825 27.2274 125.921 27.5183 124.982C27.6619 124.538 27.6663 124.027 27.6023 123.543C27.5326 123.066 27.3585 122.591 27.0732 122.348C26.7779 122.103 26.4832 122.107 26.1717 122.401C25.8584 122.701 25.6029 123.155 25.4101 123.618C25.251 123.981 25.1584 124.35 25.067 124.758C24.9644 125.153 24.896 125.556 24.8301 125.958C24.7114 126.764 24.6399 127.575 24.6225 128.387C24.5858 130.011 24.7089 131.633 24.9905 133.233C25.1148 133.938 25.2696 134.621 25.4456 135.318C25.7664 136.614 26.043 137.446 26.1922 138.049C26.3489 138.649 26.3738 139.023 26.3284 139.359C26.3073 139.512 26.3048 139.705 26.2662 139.807C26.1668 140.148 25.3971 139.248 24.707 137.307C23.7079 134.435 23.2081 131.291 23.3449 128.088C23.3878 127.289 23.463 126.485 23.5973 125.684C23.6725 125.286 23.7173 124.881 23.8136 124.482L23.9454 123.875C24.0039 123.645 24.0723 123.439 24.1481 123.228C24.3042 122.811 24.4888 122.401 24.7599 121.986C25.0309 121.591 25.3927 121.104 26.1804 120.842C26.5559 120.757 26.9737 120.749 27.3275 120.921C27.7011 121.043 27.9672 121.272 28.1842 121.513C28.6144 122.006 28.7754 122.524 28.8867 123.007C29.0241 123.735 29.0415 124.402 28.8568 125.172C28.6629 125.873 28.3551 126.47 27.9821 127.027C27.6054 127.579 27.1571 128.085 26.6019 128.514C26.0499 128.935 25.361 129.296 24.5466 129.36C24.3483 129.39 24.1382 129.354 23.9361 129.345C23.7341 129.319 23.5382 129.255 23.3418 129.204C23.1577 129.13 22.9806 129.042 22.8034 128.955C22.6051 128.838 22.4335 128.697 22.2899 128.557C21.7428 127.985 21.4618 127.39 21.2112 126.798C20.7431 125.613 20.463 124.42 20.365 123.163C20.3643 123.154 20.3698 123.146 20.3782 123.143Z" fill="#231F20"/>
<path fill-rule="evenodd" clip-rule="evenodd" d="M45.0222 124.641C45.0079 124.75 44.8643 124.702 44.6411 124.57C44.5696 124.528 44.4011 124.355 44.3955 124.312C44.3843 124.229 44.375 124.146 44.38 124.075C44.38 124.032 44.6622 123.582 44.7623 123.423C44.8556 123.268 44.978 123.143 45.1111 123.031C45.3753 122.796 45.6582 122.578 45.9572 122.379C46.0237 122.336 46.0983 122.305 46.1779 122.284C46.4552 122.219 46.6939 122.096 46.9302 121.953C46.97 121.93 47.016 121.918 47.0383 121.859C47.0676 121.751 47.7782 121.469 47.8863 121.482C48.1456 121.493 48.393 121.48 48.6448 121.511C48.6802 121.516 48.7132 121.49 48.7536 121.54C48.8462 121.654 48.9134 121.623 48.9874 121.623C49.0887 121.621 49.1919 121.632 49.2951 121.666C49.3461 121.682 49.4002 121.749 49.4512 121.801C49.4972 121.848 49.4853 122.034 49.4729 122.055C49.4356 122.117 49.4754 122.201 49.4841 122.277C49.4906 122.33 49.4761 122.38 49.4382 122.418C49.3986 122.457 49.3408 122.511 49.2798 122.565C49.1033 122.721 48.8677 122.849 48.6479 122.935C48.4751 123.003 48.3004 123.085 48.2674 123.111C48.1949 123.16 48.0975 123.128 48.0211 123.171C47.9864 123.19 47.9468 123.213 47.9063 123.237C47.7131 123.351 47.5176 123.542 47.2982 123.496C47.289 123.494 47.2794 123.492 47.2696 123.489C47.2392 123.481 47.2211 123.498 47.2012 123.51C47.0303 123.617 46.8344 123.681 46.6448 123.766C46.5497 123.811 46.4683 123.878 46.3806 123.936C46.3644 123.946 46.3402 123.945 46.3203 123.95C46.2954 123.956 46.2674 123.958 46.2482 123.973C46.0455 124.118 45.8061 124.224 45.6358 124.416C45.5948 124.456 45.3026 124.549 45.2609 124.605C45.2367 124.635 45.0278 124.596 45.0222 124.641Z" fill="#231F20"/>
<path fill-rule="evenodd" clip-rule="evenodd" d="M39.0316 110.788C39.0167 110.9 38.8643 110.849 38.6318 110.715C38.5578 110.672 38.3825 110.494 38.3757 110.45C38.3626 110.363 38.3514 110.277 38.3539 110.202C38.3539 110.157 38.6244 109.675 38.7151 109.5C38.8009 109.332 38.9178 109.195 39.0446 109.071C39.3039 108.819 39.5805 108.588 39.8553 108.367C39.9169 108.318 39.9877 108.281 40.0661 108.259C40.3347 108.179 40.5498 108.03 40.7437 107.855C40.7761 107.826 40.8171 107.808 40.8214 107.741C40.8326 107.632 41.3853 107.222 41.4748 107.202C41.7074 107.153 41.9162 107.071 42.1363 107.002C42.1687 106.994 42.1842 106.959 42.2451 106.992C42.3869 107.071 42.4273 107.012 42.4895 106.982C42.5759 106.939 42.6648 106.901 42.7698 106.882C42.8221 106.872 42.9085 106.906 42.9849 106.928C43.0546 106.947 43.1671 107.122 43.1696 107.149C43.1764 107.227 43.266 107.281 43.3231 107.346C43.3424 107.368 43.3679 107.396 43.381 107.416C43.6746 107.809 42.9442 108.363 42.5866 108.699C42.5238 108.759 42.4769 108.804 42.4621 108.822C42.4298 108.861 42.3688 108.861 42.3166 108.872C42.2918 108.879 41.8093 109.335 41.7876 109.344C41.6657 109.404 41.5843 109.52 41.4052 109.492C41.3698 109.487 41.3511 109.506 41.3306 109.523C41.154 109.664 40.9427 109.751 40.7425 109.854C40.6418 109.907 40.5603 109.986 40.4683 110.05C40.4515 110.063 40.4248 110.06 40.4043 110.067C40.3775 110.074 40.3471 110.076 40.3272 110.093C40.127 110.267 39.8628 110.362 39.6862 110.565C39.6427 110.606 39.3287 110.696 39.2852 110.754C39.2591 110.784 39.0378 110.742 39.0316 110.788Z" fill="#231F20"/>
<path fill-rule="evenodd" clip-rule="evenodd" d="M30.9806 163.917C30.9742 163.914 30.9661 163.916 30.9619 163.922C30.6346 164.388 30.2461 164.857 29.7303 165.223C29.5345 165.348 29.3511 165.498 29.1248 165.576C28.7362 165.737 28.2793 165.778 27.8832 165.715C27.4816 165.654 27.1179 165.517 26.7922 165.341C26.5024 165.186 26.2227 165.026 25.9566 164.854C25.7881 164.74 25.6153 164.632 25.4592 164.503C25.3094 164.366 25.1832 164.203 25.0781 164.025C25.0141 163.912 25.1322 163.82 25.3225 163.766C25.75 163.653 26.1544 163.901 26.5306 164.133C26.9482 164.392 27.3666 164.609 27.7831 164.77C28.1649 164.907 28.5236 164.802 28.873 164.609C29.2541 164.402 29.5929 164.06 29.8851 163.654C30.0685 163.407 30.232 163.132 30.3887 162.853C30.6206 162.424 30.8549 161.981 31.0576 161.524C31.2118 161.167 31.3169 160.786 31.4853 160.422C31.5233 160.342 31.5519 160.258 31.596 160.18C31.7775 159.9 31.9236 159.867 32.1854 159.974C32.242 159.997 32.2973 160.012 32.342 160.035C32.4776 160.099 32.6063 160.35 32.554 160.567C32.4073 161.218 32.1356 161.826 31.8105 162.469C31.5749 162.943 31.3092 163.427 30.9996 163.913C30.9955 163.919 30.9872 163.921 30.9806 163.917Z" fill="#231F20"/>
<path fill-rule="evenodd" clip-rule="evenodd" d="M22.5796 103.74C22.6486 103.838 22.5137 103.927 22.2707 104.008C22.1929 104.034 21.9561 104.038 21.9194 104.011C21.8498 103.959 21.7795 103.907 21.7279 103.853C21.6999 103.819 21.5097 103.294 21.4183 103.122C21.3356 102.954 21.2921 102.784 21.256 102.614C21.1839 102.268 21.0776 101.929 21.0173 101.586C21.0018 101.51 21.0036 101.432 21.0173 101.352C21.0677 101.075 21.0204 100.811 20.9315 100.555C20.9166 100.512 20.9154 100.465 20.8532 100.433C20.8291 100.422 20.8015 100.377 20.7739 100.313C20.5709 99.8442 20.6698 99.3166 20.7344 98.8096C20.7388 98.7735 20.7121 98.7424 20.7655 98.6977C20.8899 98.5926 20.8457 98.5273 20.8544 98.4484C20.8563 98.4207 20.8581 98.393 20.8603 98.3652C20.8733 98.1982 20.9608 98.0554 21.0608 97.9212C21.1044 97.8627 21.2306 97.8565 21.2542 97.8671C21.312 97.9006 21.3711 97.8465 21.4245 97.8285C21.4432 97.8223 21.4674 97.8142 21.4848 97.8124C21.5136 97.8069 21.6641 97.9034 21.8162 98.0159C22.0683 98.2023 22.2305 98.4869 22.3565 98.7741C22.4534 98.9948 22.5591 99.2261 22.5865 99.2721C22.6444 99.3662 22.6067 99.4894 22.6419 99.5941C22.7133 99.8059 22.8312 100.157 22.8308 100.179C22.8376 100.329 22.9129 100.47 22.8053 100.64C22.7848 100.673 22.796 100.702 22.8028 100.732C22.8575 100.984 22.8389 101.249 22.8345 101.509C22.832 101.642 22.8619 101.771 22.8625 101.904C22.8631 101.927 22.8451 101.953 22.8376 101.978C22.8283 102.009 22.8128 102.041 22.8146 102.07C22.8364 102.381 22.7767 102.696 22.8233 103.002C22.8333 103.073 22.7015 103.419 22.7183 103.499C22.7264 103.545 22.5504 103.702 22.5796 103.74Z" fill="#231F20"/>
<path fill-rule="evenodd" clip-rule="evenodd" d="M2.45037 104.831C2.31795 104.814 2.38571 104.637 2.57968 104.377C2.64123 104.295 2.8781 104.098 2.92907 104.09C3.02792 104.072 3.12429 104.055 3.20262 104.053C3.24863 104.057 3.7006 104.297 3.87281 104.348C4.03321 104.406 4.16376 104.494 4.28935 104.591L5.08823 105.148C5.14791 105.19 5.19765 105.245 5.24241 105.311C5.39161 105.541 5.60548 105.687 5.8411 105.8C5.88027 105.819 5.91322 105.851 5.97663 105.828C6.07672 105.792 6.68847 106.155 6.75064 106.239C6.89861 106.444 7.06957 106.617 7.23246 106.805C7.25608 106.832 7.29774 106.833 7.29276 106.903C7.28095 107.064 7.35555 107.08 7.41337 107.126C7.49295 107.191 7.56942 107.263 7.63159 107.357C7.66267 107.403 7.66267 107.499 7.67076 107.581C7.67884 107.656 7.54579 107.83 7.5203 107.842C7.4457 107.878 7.42456 107.984 7.38167 108.065C7.36737 108.091 7.34809 108.126 7.3338 108.147C7.30085 108.19 6.61574 108.223 6.56227 108.19C6.55605 108.187 6.35649 108.106 6.14387 108.019C5.93125 107.934 5.70744 107.845 5.6577 107.832C5.6061 107.819 5.57937 107.764 5.5458 107.72C5.5315 107.703 4.87001 107.449 4.84701 107.428C4.73137 107.339 4.57595 107.306 4.5231 107.119C4.51316 107.082 4.48394 107.072 4.45845 107.059C4.23339 106.938 4.04999 106.754 3.86162 106.579C3.76401 106.491 3.64838 106.425 3.54331 106.345C3.52466 106.331 3.51782 106.301 3.50414 106.28C3.48674 106.254 3.47555 106.218 3.45192 106.201C3.20324 106.01 3.01487 105.75 2.75313 105.568C2.6891 105.528 2.55606 105.17 2.48705 105.123C2.44539 105.097 2.50197 104.838 2.45037 104.831Z" fill="#231F20"/>
</g>
<path d="M487 54.3799C487 54.3799 489.499 45.1927 489.554 34.0386C489.642 16.0365 483.643 -2.88717 484.257 -20.879C484.661 -32.7428 487.264 -49 487.264 -49" stroke="black" stroke-width="7"/>
<g filter="url(#filter2_d_3_30)">
<path d="M432.568 405.739V428.329L420.782 422.436C414.299 419.293 408.21 416.543 407.031 416.543C402.513 416.543 405.656 422.632 414.103 430.097C420.192 435.4 422.353 438.347 420.585 438.936C419.014 439.526 407.424 442.669 394.459 445.812C370.298 451.705 365.387 454.258 369.119 457.991C370.494 459.366 379.923 458.776 400.942 455.633C417.442 453.276 431.389 451.901 431.979 452.49C432.568 453.276 429.228 460.151 424.71 468.009C419.996 475.866 416.067 482.938 415.674 483.527C415.281 484.313 416.264 485.885 417.639 487.063C419.996 489.028 421.96 488.045 428.246 482.545C432.568 478.617 436.89 475.474 437.872 475.474C438.854 475.474 440.818 481.367 442.39 488.635C445.729 505.528 448.086 510.832 452.408 510.832C457.712 510.832 458.694 504.743 457.122 482.152C456.337 470.759 456.337 461.723 457.319 461.723C458.301 461.723 466.159 464.866 474.802 468.598C491.892 476.063 497.392 477.045 497.392 472.723C497.392 468.795 494.249 466.045 479.123 455.633C471.855 450.919 465.962 446.401 465.962 445.812C465.962 445.222 475.98 441.883 488.159 438.347C509.964 432.061 519 427.936 519 424.4C519 421.453 506.624 422.043 486.981 425.579C477.552 427.347 469.105 428.329 468.516 427.543C467.926 426.954 469.302 421.846 471.659 416.346C480.498 394.935 474.998 392.97 461.248 412.81C456.14 420.471 451.033 425.972 450.247 424.989C449.461 424.204 447.301 416.346 445.336 407.703C441.408 389.238 438.854 383.148 435.122 383.148C433.157 383.148 432.568 388.256 432.568 405.739Z" fill="#FF6258"/>
<path d="M434.068 428.329V430.756L431.897 429.67L420.127 423.785C420.125 423.784 420.122 423.783 420.119 423.781C416.889 422.215 413.769 420.753 411.318 419.686C410.09 419.15 409.047 418.722 408.249 418.43C407.85 418.283 407.531 418.178 407.292 418.112C407.09 418.056 407.006 418.045 407.003 418.043C406.713 418.045 406.548 418.083 406.468 418.111C406.458 418.294 406.513 418.823 407.036 419.828C408.185 422.037 410.916 425.278 415.092 428.969C418.143 431.627 420.314 433.78 421.5 435.397C422.064 436.166 422.57 437.027 422.665 437.887C422.719 438.366 422.652 438.927 422.312 439.437C421.985 439.927 421.518 440.202 421.088 440.35C420.178 440.686 416.813 441.635 412.18 442.866C407.455 444.121 401.307 445.695 394.814 447.269C382.693 450.225 375.594 452.303 371.986 454.06C371.098 454.492 370.484 454.876 370.078 455.21C369.667 455.547 369.547 455.769 369.515 455.857C369.499 455.9 369.484 455.946 369.538 456.08C369.605 456.247 369.77 456.51 370.125 456.874C370.16 456.89 370.24 456.922 370.388 456.959C370.694 457.037 371.155 457.106 371.81 457.147C373.116 457.23 375.003 457.193 377.557 457.01C382.654 456.646 390.219 455.72 400.72 454.15L400.72 454.15L400.729 454.149C408.995 452.968 416.629 452.032 422.277 451.464C425.098 451.181 427.441 450.988 429.126 450.903C429.963 450.861 430.668 450.844 431.198 450.86C431.458 450.868 431.718 450.885 431.947 450.921C432.06 450.939 432.204 450.967 432.356 451.017C432.47 451.055 432.771 451.161 433.039 451.43L433.115 451.505L433.179 451.59C433.463 451.97 433.524 452.375 433.54 452.601C433.558 452.852 433.534 453.092 433.503 453.293C433.439 453.698 433.308 454.156 433.146 454.628C432.818 455.585 432.287 456.822 431.615 458.24C430.266 461.088 428.281 464.808 426.011 468.757L426.004 468.769L425.997 468.781C423.647 472.698 421.491 476.421 419.873 479.24C419.379 480.101 418.929 480.889 418.536 481.575C417.886 482.714 417.393 483.576 417.12 484.037C417.15 484.123 417.204 484.244 417.293 484.398C417.559 484.86 418.025 485.417 418.607 485.917C419.071 486.303 419.39 486.438 419.644 486.478C419.892 486.518 420.258 486.496 420.868 486.229C422.186 485.652 424.07 484.206 427.248 481.426C429.438 479.435 431.635 477.637 433.425 476.326C434.318 475.672 435.132 475.123 435.806 474.73C436.141 474.535 436.467 474.363 436.767 474.235C437.021 474.128 437.43 473.974 437.872 473.974C438.705 473.974 439.232 474.544 439.421 474.763C439.68 475.065 439.906 475.439 440.101 475.815C440.5 476.581 440.915 477.628 441.33 478.845C442.164 481.298 443.062 484.648 443.856 488.318L443.859 488.331L443.861 488.344C445.533 496.802 446.931 502.192 448.398 505.453C449.128 507.075 449.822 508.045 450.47 508.604C451.071 509.124 451.679 509.332 452.408 509.332C453.412 509.332 454.013 509.063 454.477 508.536C455.014 507.927 455.524 506.793 455.863 504.721C456.542 500.577 456.414 493.584 455.626 482.256L455.626 482.256C455.232 476.538 455.033 471.39 455.058 467.655C455.07 465.797 455.138 464.242 455.275 463.13C455.341 462.588 455.433 462.066 455.578 461.646C455.647 461.444 455.762 461.163 455.963 460.905C456.166 460.645 456.613 460.223 457.319 460.223C457.685 460.223 458.115 460.339 458.41 460.423C458.776 460.528 459.227 460.676 459.744 460.856C460.782 461.219 462.148 461.737 463.739 462.366C466.925 463.626 471.066 465.351 475.396 467.221L475.402 467.224C483.971 470.966 489.462 473.003 492.774 473.605C494.472 473.914 495.267 473.777 495.584 473.615L495.588 473.613C495.694 473.56 495.892 473.459 495.892 472.723C495.892 471.972 495.749 471.314 495.348 470.578C494.926 469.806 494.191 468.896 492.91 467.71C490.332 465.32 485.868 462.097 478.29 456.881C474.637 454.511 471.325 452.187 468.915 450.374C467.712 449.468 466.716 448.677 466.011 448.063C465.663 447.76 465.358 447.476 465.129 447.229C465.018 447.109 464.893 446.964 464.787 446.806C464.733 446.727 464.665 446.616 464.605 446.48C464.552 446.359 464.462 446.12 464.462 445.812C464.462 445.281 464.727 444.925 464.829 444.801C464.954 444.646 465.088 444.537 465.173 444.473C465.35 444.34 465.55 444.226 465.725 444.136C466.09 443.946 466.583 443.732 467.161 443.501C468.33 443.034 469.994 442.44 472.017 441.762C476.069 440.403 481.639 438.678 487.741 436.906L487.744 436.906C498.637 433.765 506.258 431.187 511.137 428.976C513.584 427.867 515.255 426.888 516.292 426.031C517.087 425.373 517.368 424.907 517.459 424.626C517.28 424.535 516.964 424.418 516.455 424.313C515.171 424.047 513.158 423.948 510.416 424.057C504.971 424.274 497.047 425.291 487.253 427.054C482.515 427.942 478.008 428.636 474.597 429.01C472.896 429.196 471.433 429.306 470.337 429.316C469.796 429.321 469.292 429.302 468.874 429.241C468.667 429.21 468.429 429.163 468.199 429.078C468.018 429.011 467.669 428.861 467.385 428.529C467.16 428.276 467.051 428.006 466.994 427.819C466.928 427.603 466.9 427.395 466.888 427.221C466.865 426.875 466.892 426.497 466.939 426.128C467.035 425.379 467.246 424.436 467.537 423.386C468.122 421.274 469.078 418.562 470.276 415.765C472.468 410.453 473.734 406.435 474.218 403.708C474.463 402.33 474.487 401.395 474.394 400.828C474.376 400.713 474.355 400.628 474.337 400.566C474.21 400.6 473.991 400.678 473.657 400.868C472.98 401.254 472.083 401.958 470.97 403.052C468.757 405.227 465.899 408.734 462.488 413.654C459.906 417.525 457.31 420.875 455.236 423.151C454.207 424.28 453.259 425.199 452.474 425.782C452.097 426.062 451.654 426.345 451.19 426.492C450.77 426.625 449.811 426.78 449.125 425.986C448.842 425.675 448.646 425.264 448.523 424.991C448.36 424.628 448.187 424.178 448.009 423.668C447.65 422.643 447.235 421.283 446.79 419.699C445.897 416.525 444.86 412.374 443.874 408.035L443.871 408.025L443.869 408.015C441.904 398.778 440.307 392.765 438.771 389.078C438.002 387.232 437.296 386.091 436.658 385.428C436.159 384.908 435.736 384.712 435.345 384.662C435.323 384.703 435.297 384.756 435.266 384.825C435.031 385.358 434.792 386.353 434.599 388.056C434.217 391.421 434.068 396.986 434.068 405.739V428.329ZM417.086 483.911C417.086 483.911 417.086 483.913 417.086 483.917C417.086 483.913 417.086 483.911 417.086 483.911ZM474.273 400.419C474.273 400.42 474.277 400.428 474.288 400.44C474.279 400.424 474.274 400.418 474.273 400.419ZM435.423 384.54C435.423 384.539 435.419 384.543 435.411 384.553C435.42 384.545 435.423 384.54 435.423 384.54Z" stroke="black" stroke-width="3"/>
</g>
<circle cx="194" cy="33.1484" r="10" fill="black"/>
<circle cx="317" cy="33.1484" r="10" fill="black"/>
<path d="M236.156 228.562C230.156 237.762 231.489 250.695 238.422 249.362C243.756 248.428 249.089 233.362 246.422 226.562C244.556 221.362 240.422 222.162 236.156 228.562Z" fill="#0C0C0C"/>
<path d="M273.623 230.828C268.956 233.895 267.49 248.028 271.09 255.095C273.89 260.428 277.756 260.295 281.223 254.695C284.956 248.828 284.156 237.761 279.756 233.095C276.423 229.495 275.89 229.361 273.623 230.828Z" fill="#0C0C0C"/>
<path d="M204.288 245.095C202.421 252.428 209.888 270.828 219.088 281.361C221.888 284.695 227.488 288.695 232.821 291.361C241.221 295.495 242.555 295.761 255.755 295.761C268.421 295.761 270.555 295.361 278.155 291.895C287.888 287.361 301.088 274.161 301.088 268.828C301.088 264.161 297.755 264.961 288.555 272.295C278.421 280.295 273.621 282.828 265.221 284.428C257.221 285.895 244.288 284.028 237.221 280.428C228.821 276.161 216.421 260.428 211.488 247.761C208.955 241.361 205.621 240.028 204.288 245.095Z" fill="#0C0C0C"/>
</g>
<defs>
<filter id="filter0_d_3_30" x="-29.0007" y="-49.5529" width="563" height="589.553" filterUnits="userSpaceOnUse" color-interpolation-filters="sRGB">
<feFlood flood-opacity="0" result="BackgroundImageFix"/>
<feColorMatrix in="SourceAlpha" type="matrix" values="0 0 0 0 0 0 0 0 0 0 0 0 0 0 0 0 0 0 127 0" result="hardAlpha"/>
<feOffset dx="-9" dy="10"/>
<feComposite in2="hardAlpha" operator="out"/>
<feColorMatrix type="matrix" values="0 0 0 0 0 0 0 0 0 0 0 0 0 0 0 0 0 0 0.44 0"/>
<feBlend mode="normal" in2="BackgroundImageFix" result="effect1_dropShadow_3_30"/>
<feBlend mode="normal" in="SourceGraphic" in2="effect1_dropShadow_3_30" result="shape"/>
</filter>
<filter id="filter1_d_3_30" x="-20" y="86" width="94.0111" height="96.0111" filterUnits="userSpaceOnUse" color-interpolation-filters="sRGB">
<feFlood flood-opacity="0" result="BackgroundImageFix"/>
<feColorMatrix in="SourceAlpha" type="matrix" values="0 0 0 0 0 0 0 0 0 0 0 0 0 0 0 0 0 0 127 0" result="hardAlpha"/>
<feOffset dx="2" dy="4"/>
<feComposite in2="hardAlpha" operator="out"/>
<feColorMatrix type="matrix" values="0 0 0 0 0 0 0 0 0 0 0 0 0 0 0 0 0 0 1 0"/>
<feBlend mode="normal" in2="BackgroundImageFix" result="effect1_dropShadow_3_30"/>
<feBlend mode="normal" in="SourceGraphic" in2="effect1_dropShadow_3_30" result="shape"/>
</filter>
<filter id="filter2_d_3_30" x="368" y="383.148" width="151" height="135.448" filterUnits="userSpaceOnUse" color-interpolation-filters="sRGB">
<feFlood flood-opacity="0" result="BackgroundImageFix"/>
<feColorMatrix in="SourceAlpha" type="matrix" values="0 0 0 0 0 0 0 0 0 0 0 0 0 0 0 0 0 0 127 0" result="hardAlpha"/>
<feOffset dy="7.76457"/>
<feComposite in2="hardAlpha" operator="out"/>
<feColorMatrix type="matrix" values="0 0 0 0 0.745098 0 0 0 0 0.74902 0 0 0 0 0.705882 0 0 0 1 0"/>
<feBlend mode="normal" in2="BackgroundImageFix" result="effect1_dropShadow_3_30"/>
<feBlend mode="normal" in="SourceGraphic" in2="effect1_dropShadow_3_30" result="shape"/>
</filter>
</defs>
</svg>
