<svg width="73" height="69" viewBox="0 0 73 69" fill="none" xmlns="http://www.w3.org/2000/svg">
<path d="M38.7929 8.40423C37.0211 11.2324 39.5594 19.337 43.143 22.3233C45.892 24.5568 47.926 23.5325 48.4615 19.6115C49.0768 15.4787 46.0486 9.61197 42.6016 8.13742C39.9751 6.98491 39.6589 7.04305 38.7929 8.40423Z" fill="black"/>
<path d="M15.1269 10.2853C13.355 13.1135 15.8933 21.2181 19.477 24.2044C22.226 26.4378 24.2599 25.4136 24.7954 21.4925C25.4107 17.3598 22.3825 11.493 18.9356 10.0185C16.3091 8.86595 15.9929 8.92409 15.1269 10.2853Z" fill="black"/>
<path d="M5.10639 33.2738C5.83285 37.751 14.1454 45.9958 21.5349 49.504C23.8139 50.6416 27.745 51.4557 31.2204 51.6048C36.6785 51.8032 37.4534 51.6213 44.5038 48.3742C51.2694 45.2584 52.3149 44.5144 55.5595 40.7455C59.6928 35.8673 63.641 25.3878 62.3876 22.4656C61.2908 19.9087 59.6984 21.167 56.5079 27.4481C52.9756 34.3241 51.0072 36.8929 46.8966 39.8359C42.9683 42.6074 35.6216 44.7661 31.001 44.532C25.5116 44.2605 15.1908 38.6904 9.57882 32.9637C6.72156 30.0803 4.62778 30.1697 5.10639 33.2738Z" fill="black"/>
</svg>
