<svg width="30" height="45" viewBox="0 0 30 45" fill="none" xmlns="http://www.w3.org/2000/svg">
<path d="M17.8955 0.819252C15.0661 2.09703 11.9629 6.34107 10.457 10.9958L9.90936 12.7299L7.26254 12.6843C3.79429 12.6387 1.92326 13.597 0.782392 16.0613C-2.27514 22.8609 4.02246 36.9164 12.83 42.9858C15.9788 45.1763 16.3895 44.9938 19.447 40.4303C24.8319 32.3986 27.3875 27.0593 29.076 20.4879C32.3617 7.39067 26.4748 -3.05971 17.8955 0.819252ZM23.1435 3.83115C25.0145 4.78948 26.3835 7.93829 26.703 11.9085C27.1593 18.4343 24.1474 26.9224 17.8955 36.7795C16.2526 39.3807 14.7466 41.4799 14.5185 41.4799C13.5601 41.4799 8.58595 35.3192 6.89746 32.0791C1.55818 21.8569 2.24271 14.0534 8.31214 16.3807C9.13357 16.7002 9.54428 17.2478 9.72682 18.5256C10.6395 23.9561 13.3776 28.2458 15.9332 28.2458C17.576 28.2458 18.6256 26.7398 18.6256 24.3668C18.58 21.9482 17.3022 19.1645 14.9748 16.6545L13.0582 14.5553L13.5601 12.4561C14.8379 7.4363 18.2149 3.2379 21.0443 3.14663C21.5006 3.14663 22.4589 3.46607 23.1435 3.83115Z" fill="black"/>
</svg>
