<svg width="151" height="128" viewBox="0 0 151 128" fill="none" xmlns="http://www.w3.org/2000/svg">
<g filter="url(#filter0_d_3_273)">
<path d="M64.5679 22.5902V45.1804L52.7817 39.2873C46.2993 36.1443 40.2098 33.3942 39.0311 33.3942C34.5131 33.3942 37.6561 39.4837 46.1029 46.9483C52.1924 52.2521 54.3532 55.1987 52.5853 55.788C51.0138 56.3773 39.424 59.5203 26.4592 62.6633C2.29751 68.5564 -2.61341 71.11 1.11889 74.8423C2.49394 76.2174 11.9229 75.6281 32.9416 72.4851C49.4423 70.1279 63.3893 68.7528 63.9786 69.3421C64.5679 70.1279 61.2285 77.0031 56.7104 84.8606C51.996 92.7181 48.0672 99.7898 47.6744 100.379C47.2815 101.165 48.2637 102.736 49.6387 103.915C51.996 105.879 53.9603 104.897 60.2463 99.3969C64.5679 95.4682 68.8895 92.3252 69.8717 92.3252C70.8539 92.3252 72.8182 98.2183 74.3897 105.486C77.7292 122.38 80.0864 127.684 84.408 127.684C89.7118 127.684 90.694 121.594 89.1225 99.004C88.3367 87.6107 88.3367 78.5746 89.3189 78.5746C90.3011 78.5746 98.1586 81.7176 106.802 85.4499C123.892 92.9145 129.392 93.8967 129.392 89.5751C129.392 85.6464 126.249 82.8962 111.123 72.4851C103.855 67.7706 97.9621 63.2526 97.9621 62.6633C97.9621 62.074 107.98 58.7345 120.159 55.1987C141.964 48.9127 151 44.7875 151 41.2517C151 38.3051 138.624 38.8944 118.981 42.4303C109.552 44.1982 101.105 45.1804 100.516 44.3947C99.9265 43.8054 101.302 38.698 103.659 33.1978C112.498 11.7862 106.998 9.82182 93.2476 29.6619C88.1403 37.323 83.0329 42.8232 82.2472 41.841C81.4614 41.0552 79.3007 33.1978 77.3363 24.5546C73.4075 6.08953 70.8539 -7.62939e-06 67.1216 -7.62939e-06C65.1572 -7.62939e-06 64.5679 5.10735 64.5679 22.5902Z" fill="#F3ABCB"/>
<path d="M65.5679 45.1804V46.7984L64.1207 46.0748L52.3454 40.1871C52.3436 40.1862 52.3417 40.1853 52.3399 40.1844C49.1059 38.6165 45.9788 37.1509 43.5181 36.0789C42.2856 35.542 41.2321 35.109 40.4214 34.812C40.0152 34.6633 39.6827 34.5533 39.4261 34.4818C39.2981 34.4462 39.1981 34.4227 39.1233 34.4086C39.043 34.3934 39.0179 34.3942 39.0311 34.3942C38.5659 34.3942 38.3047 34.4746 38.1725 34.5471C38.0684 34.6043 38.0265 34.6627 37.9991 34.7528C37.9128 35.0372 37.9719 35.7173 38.5924 36.9107C39.7837 39.2017 42.5705 42.4918 46.7623 46.1966C49.811 48.8521 51.9463 50.9755 53.097 52.5447C53.6529 53.3027 54.0884 54.0734 54.1685 54.7936C54.2122 55.1869 54.1555 55.6221 53.8961 56.0112C53.6449 56.388 53.2795 56.6073 52.9203 56.7303C52.05 57.0529 48.7101 57.997 44.0515 59.2345C39.3305 60.4885 33.1854 62.0616 26.6962 63.6348C14.5887 66.5878 7.43284 68.6767 3.76665 70.4622C2.85997 70.9037 2.20804 71.3077 1.76046 71.6753C1.30995 72.0453 1.11885 72.3355 1.04521 72.5369C0.942873 72.8168 0.962452 73.2717 1.82599 74.1352C1.82411 74.1333 1.82314 74.1324 1.82323 74.1322C1.82419 74.131 1.926 74.2094 2.26516 74.2955C2.61232 74.3837 3.10775 74.4556 3.77873 74.4981C5.11808 74.5829 7.03052 74.5435 9.59263 74.3605C14.7093 73.995 22.2902 73.0667 32.7937 71.4961L32.8002 71.4952C41.0609 70.315 48.687 69.3801 54.3269 68.8137C57.1449 68.5306 59.4781 68.3385 61.1506 68.2544C61.9839 68.2125 62.6727 68.1963 63.1828 68.2117C63.4347 68.2193 63.6704 68.2353 63.8691 68.2665C63.9675 68.2819 64.0831 68.305 64.1985 68.3432C64.2895 68.3733 64.5004 68.4497 64.6857 68.635L64.736 68.6853L64.7786 68.7421C64.9804 69.0112 65.0281 69.3055 65.0412 69.4884C65.0554 69.6871 65.037 69.8869 65.0087 70.0674C64.9518 70.4298 64.8308 70.8567 64.6729 71.3176C64.3541 72.2479 63.8322 73.4658 63.1635 74.8776C61.8223 77.7091 59.844 81.4171 57.5773 85.3591L57.5727 85.3671L57.5679 85.3751C55.2154 89.296 53.0582 93.022 51.4391 95.8432C50.9308 96.7288 50.4714 97.5328 50.0741 98.2281C49.3356 99.5203 48.8118 100.437 48.5877 100.805C48.589 100.824 48.5924 100.852 48.6006 100.891C48.6304 101.032 48.7088 101.238 48.8598 101.5C49.1599 102.02 49.6671 102.621 50.2841 103.151C50.7902 103.572 51.1911 103.764 51.5646 103.824C51.935 103.883 52.4 103.831 53.0684 103.539C54.4711 102.925 56.4146 101.421 59.5807 98.6505C61.761 96.6689 63.9462 94.8804 65.7204 93.581C66.6066 92.9319 67.405 92.3941 68.0575 92.0137C68.3827 91.8242 68.6889 91.6636 68.9627 91.5474C69.2054 91.4444 69.5365 91.3252 69.8717 91.3252C70.468 91.3252 70.8657 91.7361 71.0416 91.9406C71.2649 92.2003 71.4697 92.5362 71.658 92.8977C72.0393 93.6301 72.4451 94.6492 72.8564 95.8582C73.6828 98.2873 74.5762 101.617 75.3671 105.275L75.369 105.284L75.3708 105.293C77.042 113.747 78.4485 119.19 79.9425 122.51C80.687 124.164 81.4176 125.208 82.1429 125.834C82.8376 126.435 83.5616 126.684 84.408 126.684C85.5191 126.684 86.2722 126.378 86.8526 125.719C87.4814 125.004 88.0116 123.759 88.3566 121.654C89.0467 117.442 88.9121 110.39 88.1249 99.0734L88.1248 99.0728C87.731 93.3624 87.533 88.2278 87.5577 84.5102C87.5701 82.6572 87.6378 81.1259 87.7708 80.0427C87.8362 79.5103 87.9236 79.03 88.0504 78.6605C88.1121 78.4809 88.2054 78.2592 88.3575 78.0641C88.5106 77.8677 88.8276 77.5746 89.3189 77.5746C89.6042 77.5746 89.9673 77.6681 90.2728 77.7556C90.6249 77.8564 91.0665 78.0007 91.5795 78.18C92.6077 78.5395 93.9662 79.0545 95.5551 79.6827C98.7353 80.94 102.871 82.6631 107.198 84.5318L107.202 84.5335C115.763 88.2728 121.306 90.3342 124.685 90.9485C126.402 91.2606 127.339 91.1533 127.811 90.9125C128.142 90.744 128.392 90.4322 128.392 89.5751C128.392 88.7468 128.231 88.0051 127.787 87.1905C127.329 86.3513 126.55 85.3987 125.25 84.1945C122.639 81.7749 118.141 78.5294 110.568 73.3165C106.921 70.951 103.616 68.6326 101.216 66.8263C100.016 65.9236 99.0314 65.1401 98.3397 64.5377C97.9965 64.2387 97.7071 63.9685 97.4962 63.741C97.3925 63.6291 97.287 63.5054 97.2011 63.3781C97.158 63.3143 97.1066 63.2302 97.0632 63.131C97.0241 63.0416 96.9621 62.8751 96.9621 62.6633C96.9621 62.3033 97.1421 62.059 97.2161 61.9682C97.3065 61.8574 97.4051 61.776 97.4747 61.7233C97.6177 61.6153 97.7893 61.5172 97.9555 61.4309C98.2977 61.2532 98.7731 61.0461 99.3468 60.8169C100.503 60.3552 102.156 59.7651 104.176 59.0878C108.219 57.7317 113.783 56.0087 119.881 54.2383L119.882 54.2378C130.778 51.0966 138.429 48.5102 143.344 46.2831C145.806 45.1672 147.523 44.1668 148.61 43.268C149.715 42.3545 149.998 41.6909 150 41.2573C149.99 41.2429 149.956 41.1988 149.863 41.1354C149.646 40.9859 149.236 40.8154 148.557 40.6748C147.212 40.3962 145.149 40.2997 142.397 40.4093C136.916 40.6275 128.965 41.6492 119.161 43.4139C114.432 44.3006 109.938 44.9924 106.542 45.3642C104.848 45.5497 103.404 45.6581 102.333 45.6678C101.801 45.6726 101.327 45.6536 100.946 45.5978C100.758 45.57 100.557 45.5285 100.371 45.46C100.22 45.4044 99.9646 45.291 99.7615 45.0519C99.5993 44.8706 99.5166 44.6714 99.4717 44.5244C99.4206 44.3571 99.3976 44.1887 99.3873 44.0384C99.3668 43.739 99.3896 43.397 99.4349 43.0431C99.5264 42.328 99.7305 41.4108 100.019 40.3708C100.597 38.2838 101.545 35.5916 102.737 32.8099C104.935 27.4848 106.217 23.4268 106.71 20.6474C106.959 19.2477 106.994 18.2476 106.888 17.5993C106.836 17.2796 106.757 17.0964 106.696 17.0012C106.645 16.9218 106.612 16.9105 106.598 16.9058L106.598 16.9056C106.526 16.8808 106.187 16.8432 105.41 17.2853C104.679 17.7017 103.746 18.439 102.619 19.5466C100.373 21.7537 97.4942 25.2909 94.0748 30.224C91.5023 34.0821 88.9201 37.4117 86.866 39.6662C85.8448 40.787 84.9221 41.6777 84.1757 42.2323C83.8129 42.502 83.4227 42.7451 83.0385 42.867C82.6854 42.9791 81.9912 43.0761 81.5006 42.507C81.2765 42.2642 81.1058 41.9187 80.9792 41.6375C80.8244 41.2934 80.6571 40.8582 80.4808 40.3543C80.1271 39.3437 79.7155 37.9952 79.2711 36.4151C78.3812 33.2513 77.3459 29.1089 76.3611 24.7762L76.3611 24.7762L76.3582 24.7627C74.3931 15.5269 72.7883 9.47224 71.2322 5.73751C70.4534 3.86846 69.7189 2.66178 69.0186 1.9328C68.3467 1.23341 67.736 0.999992 67.1216 0.999992C67.1208 0.999992 67.1204 0.999672 67.1199 0.999359C67.1184 0.998184 67.1171 0.997185 67.0962 1.01497C67.0474 1.05647 66.9398 1.17752 66.8089 1.47455C66.5417 2.08078 66.2961 3.13894 66.1017 4.85178C65.7162 8.2491 65.5679 13.8413 65.5679 22.5902V45.1804Z" stroke="black" stroke-width="2"/>
</g>
<defs>
<filter id="filter0_d_3_273" x="0" y="0.000190735" width="151" height="135.448" filterUnits="userSpaceOnUse" color-interpolation-filters="sRGB">
<feFlood flood-opacity="0" result="BackgroundImageFix"/>
<feColorMatrix in="SourceAlpha" type="matrix" values="0 0 0 0 0 0 0 0 0 0 0 0 0 0 0 0 0 0 127 0" result="hardAlpha"/>
<feOffset dy="7.76457"/>
<feComposite in2="hardAlpha" operator="out"/>
<feColorMatrix type="matrix" values="0 0 0 0 0.745098 0 0 0 0 0.74902 0 0 0 0 0.705882 0 0 0 1 0"/>
<feBlend mode="normal" in2="BackgroundImageFix" result="effect1_dropShadow_3_273"/>
<feBlend mode="normal" in="SourceGraphic" in2="effect1_dropShadow_3_273" result="shape"/>
</filter>
</defs>
</svg>
