<svg width="37" height="34" viewBox="0 0 37 34" fill="none" xmlns="http://www.w3.org/2000/svg">
<path d="M19.2533 4.17126C18.3739 5.57499 19.6337 9.59755 21.4124 11.0798C22.7768 12.1883 23.7863 11.6799 24.0521 9.73377C24.3575 7.68255 22.8545 4.7707 21.1437 4.03884C19.8401 3.46681 19.6831 3.49567 19.2533 4.17126Z" fill="black"/>
<path d="M7.50846 5.10482C6.62904 6.50855 7.88886 10.5311 9.66754 12.0133C11.032 13.1218 12.0415 12.6135 12.3073 10.6673C12.6126 8.61611 11.1096 5.70426 9.39883 4.9724C8.09522 4.40037 7.93828 4.42923 7.50846 5.10482Z" fill="black"/>
<path d="M2.53444 16.5147C2.895 18.7369 7.02077 22.8291 10.6884 24.5703C11.8195 25.1349 13.7707 25.539 15.4957 25.613C18.2047 25.7115 18.5892 25.6212 22.0886 24.0096C25.4466 22.4631 25.9655 22.0938 27.5759 20.2232C29.6274 17.802 31.587 12.6007 30.9649 11.1503C30.4205 9.88125 29.6302 10.5058 28.0466 13.6233C26.2934 17.0361 25.3165 18.311 23.2762 19.7717C21.3265 21.1473 17.6801 22.2187 15.3868 22.1025C12.6622 21.9678 7.53963 19.2032 4.75424 16.3609C3.3361 14.9297 2.29689 14.9741 2.53444 16.5147Z" fill="black"/>
</svg>
