<svg width="48" height="48" viewBox="0 0 48 48" fill="none" xmlns="http://www.w3.org/2000/svg">
<path d="M26.1465 18.2891L16.524 3.86129L16.4498 3.75H16.316H5H4.53271L4.79203 4.13874L19.5243 26.2232L4.80814 43.8397L4.46541 44.25H5H8.352H8.46892L8.54387 44.1603L21.3016 28.8868L31.476 44.1387L31.5503 44.25H31.684H43H43.4673L43.208 43.8613L27.9277 20.9548L41.9519 4.16024L42.2945 3.75H41.76H38.408H38.2911L38.2161 3.83973L26.1465 18.2891ZM23.2309 26.2936L23.2308 26.2935L21.7269 24.0796L21.7268 24.0795L10.0318 6.85H14.5775L24.1551 20.9604L24.1551 20.9604L25.6571 23.1744L25.6571 23.1744L37.9382 41.268H33.3945L23.2309 26.2936Z" fill="black" stroke="black" stroke-width="0.5"/>
</svg>
