<svg width="77" height="90" viewBox="0 0 77 90" fill="none" xmlns="http://www.w3.org/2000/svg">
<path d="M60.6877 14.0712C60.096 13.1651 54.8066 12.4038 48.7451 12.2261C39.3179 11.9796 37.7259 12.3432 37.1674 14.2589C35.5702 19.0601 37.7858 20.1386 48.805 20.0216C60.7542 19.7148 63.7644 18.3258 60.6877 14.0712Z" fill="black"/>
<path d="M43.0884 43.0095C31.4734 35.3629 27.9099 34.23 28.1647 38.5178C28.2683 40.2597 32.2351 43.6545 40.0731 48.8363C46.6494 53.1517 52.3661 56.577 53.036 56.5372C53.572 56.5053 54.0204 54.9996 53.9169 53.2577C53.7735 50.8458 51.0684 48.3173 43.0884 43.0095Z" fill="black"/>
<path d="M28.6814 66.4948C22.5825 56.6379 15.3494 48.0585 13.9312 49.0841C11.4809 50.8433 12.9337 54.9254 19.205 63.1585C22.5735 67.799 26.2259 72.6917 27.2594 74.2438C28.2929 75.796 29.5785 77.0642 30.2484 77.0244C33.0623 76.8572 32.3975 72.4593 28.6814 66.4948Z" fill="black"/>
</svg>
