<svg width="48" height="48" viewBox="0 0 48 48" fill="none" xmlns="http://www.w3.org/2000/svg">
<path d="M24.002 18C22.4107 18 20.8846 18.6321 19.7594 19.7574C18.6341 20.8826 18.002 22.4087 18.002 24C18.002 25.5913 18.6341 27.1174 19.7594 28.2426C20.8846 29.3679 22.4107 30 24.002 30C25.5933 30 27.1194 29.3679 28.2446 28.2426C29.3699 27.1174 30.002 25.5913 30.002 24C30.002 22.4087 29.3699 20.8826 28.2446 19.7574C27.1194 18.6321 25.5933 18 24.002 18ZM24.002 14C26.6542 14 29.1977 15.0536 31.0731 16.9289C32.9484 18.8043 34.002 21.3478 34.002 24C34.002 26.6522 32.9484 29.1957 31.0731 31.0711C29.1977 32.9464 26.6542 34 24.002 34C21.3498 34 18.8063 32.9464 16.9309 31.0711C15.0556 29.1957 14.002 26.6522 14.002 24C14.002 21.3478 15.0556 18.8043 16.9309 16.9289C18.8063 15.0536 21.3498 14 24.002 14ZM37.002 13.5C37.002 14.163 36.7386 14.7989 36.2698 15.2678C35.8009 15.7366 35.165 16 34.502 16C33.839 16 33.2031 15.7366 32.7342 15.2678C32.2654 14.7989 32.002 14.163 32.002 13.5C32.002 12.837 32.2654 12.2011 32.7342 11.7322C33.2031 11.2634 33.839 11 34.502 11C35.165 11 35.8009 11.2634 36.2698 11.7322C36.7386 12.2011 37.002 12.837 37.002 13.5ZM24.002 8C19.054 8 18.246 8.014 15.944 8.116C14.376 8.19 13.324 8.4 12.348 8.78C11.5312 9.07988 10.7928 9.56052 10.188 10.186C9.56201 10.7908 9.08071 11.5292 8.78 12.346C8.4 13.326 8.19 14.376 8.118 15.942C8.014 18.15 8 18.922 8 24C8 28.95 8.014 29.756 8.116 32.058C8.19 33.624 8.4 34.678 8.778 35.652C9.118 36.522 9.518 37.148 10.182 37.812C10.856 38.484 11.482 38.886 12.342 39.218C13.33 39.6 14.382 39.812 15.942 39.884C18.15 39.988 18.922 40 24 40C28.95 40 29.756 39.986 32.058 39.884C33.622 39.81 34.674 39.6 35.652 39.222C36.468 38.9206 37.2061 38.4402 37.812 37.816C38.486 37.144 38.888 36.518 39.22 35.656C39.6 34.672 39.812 33.62 39.884 32.056C39.988 29.85 40 29.076 40 24C40 19.052 39.986 18.244 39.884 15.942C39.81 14.378 39.598 13.322 39.22 12.346C38.9185 11.53 38.4381 10.792 37.814 10.186C37.2095 9.55969 36.471 9.07833 35.654 8.778C34.674 8.398 33.622 8.188 32.058 8.116C29.852 8.012 29.08 8 24 8M24 4C29.434 4 30.112 4.02 32.246 4.12C34.374 4.22 35.826 4.554 37.1 5.05C38.42 5.558 39.532 6.246 40.644 7.356C41.661 8.35579 42.4479 9.56518 42.95 10.9C43.444 12.174 43.78 13.626 43.88 15.756C43.974 17.888 44 18.566 44 24C44 29.434 43.98 30.112 43.88 32.244C43.78 34.374 43.444 35.824 42.95 37.1C42.4493 38.4355 41.6622 39.6452 40.644 40.644C39.6439 41.6606 38.4346 42.4475 37.1 42.95C35.826 43.444 34.374 43.78 32.246 43.88C30.112 43.974 29.434 44 24 44C18.566 44 17.888 43.98 15.754 43.88C13.626 43.78 12.176 43.444 10.9 42.95C9.56465 42.4489 8.35505 41.6619 7.356 40.644C6.33886 39.6443 5.55192 38.4349 5.05 37.1C4.554 35.826 4.22 34.374 4.12 32.244C4.024 30.112 4 29.434 4 24C4 18.566 4.02 17.888 4.12 15.756C4.22 13.626 4.554 12.176 5.05 10.9C5.55047 9.56436 6.33761 8.35464 7.356 7.356C8.35534 6.33846 9.56486 5.55146 10.9 5.05C12.174 4.554 13.624 4.22 15.754 4.12C17.89 4.026 18.568 4 24.002 4" fill="black"/>
</svg>
