<svg width="184" height="184" viewBox="0 0 184 184" fill="none" xmlns="http://www.w3.org/2000/svg">
<g clip-path="url(#clip0_3_65)">
<g filter="url(#filter0_d_3_65)">
<path d="M51.1209 75.2048L51.4445 76.1339C66.1513 73.9692 87.0852 77.1324 104.236 85.9019L104.464 85.456L104.236 85.9019C114.407 91.1018 123.206 98.2353 128.645 107.314C134.075 116.379 136.175 127.417 132.902 140.488L132.901 140.489C132.816 140.832 132.468 141.042 132.124 140.957C131.782 140.87 131.572 140.52 131.658 140.176C134.844 127.454 132.769 116.671 127.413 107.81C122.065 98.9622 113.467 92.0629 103.651 87.0442C93.7453 81.9799 82.566 78.7964 72.0968 77.4612C61.6351 76.127 51.8394 76.6331 44.7129 78.9878L44.7126 78.9879C44.3685 79.1019 44.1769 79.024 44.065 78.9484C43.9275 78.8557 43.8502 78.721 43.8306 78.6817L43.8303 78.6811C43.7966 78.6137 43.7479 78.4944 43.7494 78.3592C43.7506 78.2449 43.7864 78.0793 43.9949 77.887L43.9948 77.8871C43.9948 77.8871 44.0022 77.8806 44.0211 77.8663C44.041 77.8513 44.0678 77.8321 44.1025 77.8082C44.1719 77.7604 44.2643 77.7 44.3786 77.6275C44.607 77.4828 44.9117 77.2976 45.2728 77.0827C45.9944 76.6532 46.9297 76.1116 47.906 75.5508C48.563 75.1734 49.2393 74.7868 49.8804 74.4203C51.1388 73.701 52.2618 73.0592 52.8373 72.716C53.5111 72.3147 54.4727 71.8136 55.6226 71.2166L55.731 71.1603C56.8494 70.5796 58.1285 69.9156 59.4543 69.1819C62.1858 67.6704 65.1498 65.8455 67.359 63.8061C68.6084 62.654 69.6719 61.3979 70.1825 60.0507C70.7061 58.6693 70.6377 57.215 69.6695 55.7557C68.6927 54.282 67.198 53.4575 65.4198 53.0821C63.6515 52.7087 61.5756 52.7721 59.3698 53.0876L59.3698 53.0877C53.7171 53.8971 47.0036 56.5258 41.2229 59.4214C35.45 62.3131 30.5271 65.5116 28.4779 67.5038L28.4776 67.5041C28.2229 67.752 27.8176 67.7456 27.5716 67.4928L27.5715 67.4927C27.3242 67.2387 27.3293 66.8334 27.5846 66.5846C29.6033 64.621 34.6139 61.3385 40.6023 58.3309C46.5831 55.3272 53.4593 52.6382 59.1875 51.8182C64.5356 51.0526 68.7138 51.992 70.7384 55.0452C71.8641 56.7427 72.0404 58.3937 71.5597 59.9899C71.0713 61.6114 69.8914 63.216 68.2284 64.7496L68.2283 64.7497C66.0506 66.7593 63.0971 68.5966 60.31 70.1513C58.943 70.9138 57.6239 71.6041 56.4631 72.2116L56.4034 72.2429C55.2346 72.8546 54.2185 73.387 53.4961 73.8177C53.0323 74.0928 52.1497 74.61 51.1209 75.2048Z" fill="black" stroke="black"/>
<path d="M132.58 140.48L131.976 139.193C131.715 138.636 131.459 138.08 131.205 137.527C130.335 135.637 129.478 133.773 128.456 131.971L128.456 131.971C124.936 125.763 119.971 120.07 113.958 116.236C113.657 116.045 113.26 116.134 113.07 116.431C112.88 116.732 112.969 117.128 113.266 117.319C119.135 121.056 123.937 126.602 127.338 132.604L127.338 132.604C128.369 134.423 129.243 136.327 130.109 138.212C130.532 139.133 130.953 140.049 131.389 140.949C131.404 140.979 131.439 141.055 131.487 141.156C131.558 141.31 131.656 141.521 131.749 141.714C131.832 141.888 131.917 142.06 131.992 142.201C132.029 142.271 132.062 142.33 132.089 142.376C132.114 142.418 132.127 142.436 132.13 142.441C132.131 142.441 132.131 142.442 132.13 142.441L132.132 142.444C132.275 142.618 132.411 142.677 132.514 142.699C132.629 142.723 132.736 142.709 132.813 142.691L132.819 142.689L132.819 142.689C132.934 142.663 133.07 142.605 133.208 142.464C133.309 142.359 133.528 142.018 133.732 141.418L133.732 141.416C134.068 140.435 134.47 138.719 134.823 137.12C134.93 136.634 135.033 136.156 135.129 135.715C135.34 134.739 135.511 133.946 135.599 133.654C135.599 133.654 135.599 133.654 135.599 133.654L136.078 133.799C138.504 125.742 141.973 118.54 145.569 111.074C146.053 110.069 146.539 109.059 147.025 108.042L132.58 140.48ZM132.58 140.48L132.916 139.099C133.458 136.875 134.21 133.814 134.372 133.285L134.372 133.283C136.83 125.117 140.344 117.815 144.01 110.199C144.477 109.229 144.947 108.254 145.417 107.271C145.57 106.951 145.953 106.816 146.27 106.968C146.588 107.12 146.725 107.505 146.573 107.827L132.58 140.48Z" fill="black" stroke="black"/>
</g>
</g>
<defs>
<filter id="filter0_d_3_65" x="25.8869" y="51.0646" width="121.249" height="96.155" filterUnits="userSpaceOnUse" color-interpolation-filters="sRGB">
<feFlood flood-opacity="0" result="BackgroundImageFix"/>
<feColorMatrix in="SourceAlpha" type="matrix" values="0 0 0 0 0 0 0 0 0 0 0 0 0 0 0 0 0 0 127 0" result="hardAlpha"/>
<feOffset dx="-1" dy="4"/>
<feComposite in2="hardAlpha" operator="out"/>
<feColorMatrix type="matrix" values="0 0 0 0 0 0 0 0 0 0 0 0 0 0 0 0 0 0 1 0"/>
<feBlend mode="normal" in2="BackgroundImageFix" result="effect1_dropShadow_3_65"/>
<feBlend mode="normal" in="SourceGraphic" in2="effect1_dropShadow_3_65" result="shape"/>
</filter>
<clipPath id="clip0_3_65">
<rect width="130" height="130" fill="white" transform="translate(88.1856) scale(1.00169) rotate(42.6258)"/>
</clipPath>
</defs>
</svg>
