<svg width="580" height="572" viewBox="0 0 580 572" fill="none" xmlns="http://www.w3.org/2000/svg">
<path d="M22.2294 3.14079C22.2294 62.8709 22.8659 86.8749 22.8659 150.397M22.8659 150.397C22.8659 213.92 22.7675 329.696 22.2294 407.51C21.6914 485.323 21.2739 561.063 21.2739 561.063C21.2739 572.054 20.097 559.085 20.1829 553.236C20.2902 545.926 21.3198 337.945 21.3198 319.789C21.3198 301.632 22.2294 209.207 22.8659 150.397Z" stroke="black" stroke-width="6.28125" stroke-miterlimit="10" stroke-linecap="round" stroke-linejoin="round"/>
<path d="M467.762 552.497C555.123 552.497 542.921 552.497 571.625 552.497C571.131 552.783 566.68 553.877 564.843 554.099C562.548 554.376 502.319 554.224 489.465 554.224C445.463 554.224 246.686 553.191 233.676 553.191M467.762 552.497C467.762 552.497 257.057 554.224 223.452 554.224C189.846 554.224 197.794 554.271 126.85 554.224C73.8098 554.19 10.3863 554.224 6.11832 554.224C1.85035 554.224 3.42518 552.153 3.42518 552.153C33.2581 553.191 85.1783 553.191 153.368 553.191C176.865 553.191 204.35 553.191 233.676 553.191M467.762 552.497C403.897 552.497 313.385 553.191 233.676 553.191" stroke="black" stroke-width="6.28125" stroke-miterlimit="10" stroke-linecap="round" stroke-linejoin="round"/>
<path d="M556.388 286.515C556.389 356.026 557.805 399.76 557.806 445.209C557.806 490.658 557.082 567.654 557.082 567.654C557.082 567.654 555.415 570.898 555.416 564.557C555.416 558.217 556.505 513.143 556.388 448.365C556.272 383.587 556.277 315.709 556.388 286.515ZM556.388 286.515C556.388 253.748 555.632 186.815 555.677 149.569C555.727 107.803 555.676 47.6574 555.677 7.32851" stroke="black" stroke-width="6.28125" stroke-miterlimit="10" stroke-linecap="round" stroke-linejoin="round"/>
<path d="M14.6575 17.6534C45.2484 17.6534 71.9383 17.6534 87.6749 17.6534M87.6749 17.6534C103.412 17.6534 173.282 17.9586 202.866 17.9586M87.6749 17.6534C87.6749 17.6534 121.801 16.7033 141.809 16.7033C161.817 16.7033 202.866 17.9586 202.866 17.9586M576.859 17.9586C545.549 17.9586 560.026 17.6534 528.927 17.6534C511.201 17.6534 489.515 18.1621 458.428 17.9586M286.141 16.7033C307.656 16.7327 420.109 17.7079 458.428 17.9586M286.141 16.7033C263.891 16.6729 232.451 17.9586 202.866 17.9586M286.141 16.7033C286.141 16.7033 340.089 16.7033 370.303 16.7033M458.428 17.9586C458.428 17.9586 400.517 16.7033 370.303 16.7033M202.866 17.9586C221 17.9586 263.042 17.9586 286.141 17.9586C309.241 17.9586 351.874 17.1218 370.303 16.7033" stroke="black" stroke-width="6.28125" stroke-miterlimit="10" stroke-linecap="round" stroke-linejoin="round"/>
</svg>
