<svg width="205" height="204" viewBox="0 0 205 204" fill="none" xmlns="http://www.w3.org/2000/svg">
<g filter="url(#filter0_d_3_14)">
<rect width="143.482" height="149.353" transform="translate(122.578) scale(1.00179) rotate(55.0113)" fill="#F3ABCB"/>
<g filter="url(#filter1_d_3_14)">
<path d="M156.205 51.046C154.137 51.6763 154.177 51.6489 136.718 67.136C129.645 73.37 123.661 78.4919 123.461 78.4566C123.262 78.4213 122.784 74.3212 122.459 69.3556C121.794 59.9022 120.858 54.3139 119.746 52.6416C118.431 50.7618 116.809 50.6129 114.655 52.1205C112.384 53.7103 110.959 55.7583 104.214 67.1302C98.6843 76.4854 97.2549 78.3611 95.896 78.0869C94.1377 77.7422 91.1342 75.1183 76.3871 61.0509C68.3635 53.4219 60.9978 46.7328 59.9914 46.2119C56.7137 44.3633 54.9552 46.9361 56.2199 51.8274C56.5957 53.198 59.1604 59.8633 61.913 66.6304C69.5639 85.3145 73.4166 97.3214 72.046 98.2807C71.7327 98.5 69.0893 98.308 66.1092 97.8849C55.3988 96.3374 48.3695 95.7143 47.1203 96.1803C46.1608 96.5601 45.8514 96.9517 45.7691 98.0012C45.6751 99.1173 45.8943 99.4306 47.3941 100.656C48.3653 101.377 54.0865 104.549 60.0975 107.636C66.1085 110.722 71.4263 113.651 71.9276 114.117C73.443 115.449 73.1453 116.357 70.7486 118.268C69.5502 119.224 63.3469 124.032 56.9477 128.978C41.9877 140.616 39.8885 142.785 41.4509 145.017C43.26 147.602 48.6642 146.737 70.1599 140.269C79.3276 137.528 87.2343 135.32 87.7003 135.402C88.4052 135.492 88.4443 136.048 87.9233 138.222C86.5524 143.849 84.0335 158.507 84.1979 159.909C84.6167 163.175 86.6452 163.739 89.2691 161.319C90.0602 160.532 94.1646 155.558 98.4451 150.17C102.687 144.809 106.247 140.392 106.38 140.416C106.513 140.439 107.597 143.239 108.76 146.568C111.607 154.553 116.94 166.924 119.407 171.032C121.173 174.056 121.459 174.381 122.669 174.526C125.461 174.847 125.801 173.5 128.724 152.667C129.786 145.097 130.93 138.812 131.219 138.725C131.509 138.639 134.493 139.818 137.79 141.361C146.073 145.192 151.457 146.966 153.689 146.571C155.459 146.265 155.538 146.21 155.773 144.879C156.141 142.988 153.224 137.736 148.537 131.623C146.528 129.003 144.883 126.653 144.958 126.426C144.966 126.187 148.607 126.555 152.974 127.292C165.658 129.325 177.155 130.496 180.739 130.031C183.543 129.702 184.682 127.912 183.339 125.993C182.764 125.171 173.498 120.103 160.282 113.308C154.996 110.59 150.672 108.248 150.641 108.036C150.61 107.825 154.694 104.908 159.672 101.599C169.991 94.6679 171.573 93.0937 170.508 91.1552C169.733 89.7141 169.11 89.7414 157.221 91.178C146.973 92.4579 143.174 92.7827 142.872 92.3519C142.763 92.1953 143.389 90.5897 144.275 88.6866C145.148 86.85 147.122 82.6677 148.692 79.4097C153.553 69.1812 158.108 58.3496 158.786 55.483C159.322 53.4154 159.287 52.4481 158.711 51.6257C158.053 50.6858 157.654 50.6153 156.205 51.046ZM155.002 58.2476C153.009 63.3188 146.77 77.0795 143.206 84.2418C140.198 90.198 139.281 93.0566 140.076 94.1923C141.008 95.5239 145.637 95.5515 155.169 94.248C160.471 93.5709 165.311 92.9837 165.922 93.0229C166.878 93.0543 166.894 93.16 165.695 94.1155C164.979 94.6754 160.424 97.9216 155.595 101.36L146.784 107.527L147.406 108.667C147.876 109.505 152.391 112.121 163.732 118.07C172.374 122.582 179.584 126.463 179.748 126.698C179.913 126.933 179.932 127.211 179.775 127.321C179.031 127.841 161.135 125.781 151.909 124.186C146.317 123.199 141.555 122.564 141.242 122.784C139.91 123.716 140.368 124.62 146.947 134.019C150.537 139.149 153.368 143.528 153.255 143.782C152.816 144.906 146.895 142.866 137.724 138.432C132.226 135.745 130.295 135.405 128.952 136.987C128.357 137.637 127.28 143.35 125.642 154.182C124.345 163.083 123.107 170.484 122.912 170.621C122.011 171.252 119.29 165.28 113.499 150.253C107.919 135.779 107.837 135.662 105.252 137.471C104.547 137.964 101.821 141.156 99.2326 144.543C92.704 153.138 87.5501 159.196 87.2212 158.726C86.81 158.139 87.9187 151.47 89.838 143.125C91.8435 134.486 91.8828 133.292 90.5279 132.606C89.0124 131.858 86.4786 132.406 72.6507 136.658C53.818 142.43 45.179 144.508 44.3841 143.373C43.8633 142.629 47.1295 139.876 63.1352 127.565C70.161 122.18 74.9897 118.159 75.4244 117.446C77.1868 114.462 74.4575 111.646 65.349 107.052C55.5826 102.102 50.95 99.5679 51.0205 99.1685C51.0636 98.7299 53.4955 98.9532 63.1681 100.352C71.5758 101.527 73.9216 101.461 74.6579 100.012C76.3067 96.6989 73.6208 87.6095 63.8242 63.1922C59.9322 53.5467 58.6949 49.8616 59.204 49.5053C59.6348 49.2038 59.717 49.3213 74.4368 63.3495C88.8863 77.1584 91.3494 79.3437 93.9535 80.7301C97.8459 82.7902 99.4046 81.3492 107.21 68.2426C113.187 58.1081 115.536 54.713 116.645 54.4624C117.87 54.1296 118.583 58.0653 119.456 70.2326C120.203 80.9705 120.583 83.097 121.628 83.007C121.867 83.0148 122.909 82.169 123.947 81.1509C127.542 77.701 154.059 55.2321 155.747 54.2258C156.624 53.7285 156.542 54.1945 155.002 58.2476Z" fill="black"/>
</g>
<g filter="url(#filter2_d_3_14)">
<path d="M129.05 93.8588C123.599 89.1553 114.189 85.8809 106.768 86.1154C103.032 86.2797 97.4708 87.838 93.7504 89.8584C83.255 95.4539 81.3783 109.779 89.8639 119.652C98.4983 129.654 115.079 133.919 125.159 128.731C133.246 124.53 138.106 115.468 136.771 106.892C136.306 103.892 135.914 102.999 133.702 99.5883C132.08 97.1054 130.389 95.0219 129.05 93.8588ZM133.572 107.323C134.1 110.745 133.192 115.699 131.37 119.016C129.98 121.448 129.475 121.976 125.754 124.58C121.995 127.212 121.364 127.478 118.498 127.967C114.864 128.527 108.144 127.512 103.527 125.668C87.3342 119.205 82.1111 101.739 93.8598 93.5161C98.9509 89.9527 107.484 87.8895 112.943 88.8531C115.833 89.3976 123.144 93.0909 126.116 95.5034C129.292 98.1234 133.075 104.111 133.572 107.323Z" fill="black"/>
</g>
<path d="M119.747 108.246C118.952 107.694 117.311 109.017 117.429 110.102C117.66 112.099 120.432 112.143 120.785 110.145C120.938 109.28 120.675 108.822 119.747 108.246Z" fill="black"/>
<path d="M105.246 99.7826C103.848 100.119 103.277 101.22 103.899 102.359C104.592 103.683 106.351 103.444 106.742 102.003C107.048 100.856 106.143 99.5634 105.246 99.7826Z" fill="black"/>
<path d="M107.807 116.195C105.348 118.266 104.745 118.572 103.523 118.493C102.301 118.415 102.031 118.196 101.741 117.115C101.475 115.901 101.949 113.41 102.846 111.44C103.187 110.677 103.105 110.559 102.361 110.497C101.045 110.367 99.3058 113.802 99.4388 116.159C99.6462 120.04 102.697 121.814 106.253 120.142C107.944 119.308 110.549 116.61 110.956 115.275C111.41 113.673 110.541 113.931 107.807 116.195Z" fill="black"/>
</g>
<defs>
<filter id="filter0_d_3_14" x="-1.69483e-06" y="0" width="205" height="219.583" filterUnits="userSpaceOnUse" color-interpolation-filters="sRGB">
<feFlood flood-opacity="0" result="BackgroundImageFix"/>
<feColorMatrix in="SourceAlpha" type="matrix" values="0 0 0 0 0 0 0 0 0 0 0 0 0 0 0 0 0 0 127 0" result="hardAlpha"/>
<feOffset dy="16"/>
<feComposite in2="hardAlpha" operator="out"/>
<feColorMatrix type="matrix" values="0 0 0 0 0 0 0 0 0 0 0 0 0 0 0 0 0 0 0.25 0"/>
<feBlend mode="normal" in2="BackgroundImageFix" result="effect1_dropShadow_3_14"/>
<feBlend mode="normal" in="SourceGraphic" in2="effect1_dropShadow_3_14" result="shape"/>
</filter>
<filter id="filter1_d_3_14" x="41.0164" y="45.6114" width="142.885" height="132.958" filterUnits="userSpaceOnUse" color-interpolation-filters="sRGB">
<feFlood flood-opacity="0" result="BackgroundImageFix"/>
<feColorMatrix in="SourceAlpha" type="matrix" values="0 0 0 0 0 0 0 0 0 0 0 0 0 0 0 0 0 0 127 0" result="hardAlpha"/>
<feOffset dy="4"/>
<feComposite in2="hardAlpha" operator="out"/>
<feColorMatrix type="matrix" values="0 0 0 0 0 0 0 0 0 0 0 0 0 0 0 0 0 0 0.25 0"/>
<feBlend mode="normal" in2="BackgroundImageFix" result="effect1_dropShadow_3_14"/>
<feBlend mode="normal" in="SourceGraphic" in2="effect1_dropShadow_3_14" result="shape"/>
</filter>
<filter id="filter2_d_3_14" x="84.526" y="86.1036" width="52.465" height="48.854" filterUnits="userSpaceOnUse" color-interpolation-filters="sRGB">
<feFlood flood-opacity="0" result="BackgroundImageFix"/>
<feColorMatrix in="SourceAlpha" type="matrix" values="0 0 0 0 0 0 0 0 0 0 0 0 0 0 0 0 0 0 127 0" result="hardAlpha"/>
<feOffset dy="4"/>
<feComposite in2="hardAlpha" operator="out"/>
<feColorMatrix type="matrix" values="0 0 0 0 0 0 0 0 0 0 0 0 0 0 0 0 0 0 0.25 0"/>
<feBlend mode="normal" in2="BackgroundImageFix" result="effect1_dropShadow_3_14"/>
<feBlend mode="normal" in="SourceGraphic" in2="effect1_dropShadow_3_14" result="shape"/>
</filter>
</defs>
</svg>
