<svg width="32" height="48" viewBox="0 0 32 48" fill="none" xmlns="http://www.w3.org/2000/svg">
<path d="M17.1037 1.12953C16.9361 1.50426 16.8645 4.10613 16.9057 6.8869L16.995 12.0019L15.2553 12.4444C14.2664 12.6445 13.355 12.8151 13.1944 12.7433C13.0338 12.6715 12.7419 10.164 12.4571 7.20999C12.0635 2.34439 11.1588 -0.372888 10.0741 0.0413916C9.86566 0.076629 9.39974 3.27302 9.00995 7.01739L8.33313 13.8454L3.86351 15.5082C-0.170841 16.9159 -0.528626 17.1414 0.470213 17.7808C1.04079 18.2287 2.89185 18.5426 4.54708 18.5763C6.22624 18.5563 7.61945 18.6013 7.72652 18.6492C8.10125 18.8167 7.93582 25.9377 7.55275 26.7943C7.33727 27.2761 5.59059 28.1651 3.64806 28.7739C1.652 29.3588 0.191272 30.183 0.309637 30.4929C0.428002 30.8028 2.0227 31.259 3.81458 31.418C5.66 31.601 7.30258 31.9501 7.52801 32.3079C7.77739 32.6122 8.15105 35.7986 8.35712 39.3598C8.90457 47.185 9.73312 49.3543 11.4529 47.2326C11.9008 46.6621 12.5343 43.0909 12.8593 39.0606L13.4952 31.8931L15.1814 31.4266L16.8436 31.0137L17.1922 37.2725C17.4196 41.9353 17.7846 43.7045 18.5341 44.0397C19.9795 44.6862 21.1174 41.8546 22.1393 35.1166C22.563 32.1583 23.0093 29.724 23.1403 29.7184C24.9744 29.6393 31.071 27.3551 31.4062 26.6056C32.0287 25.2138 31.0172 24.8899 26.6996 25.2073L22.93 25.4486L22.7013 21.3634C22.5757 19.0588 22.4317 16.9388 22.4204 16.6767C22.4331 16.3612 24.2093 15.5496 26.3308 14.8281C28.4522 14.1066 30.3299 13.2119 30.4735 12.8907C31.096 11.4988 29.3111 10.8933 25.7556 11.2303C23.7426 11.4221 21.9085 11.5012 21.6944 11.4055C21.4267 11.2858 20.7348 9.24181 20.0795 6.82879C18.9112 2.2591 17.6543 -0.101737 17.1037 1.12953ZM16.9958 19.3257C17.1424 20.2906 17.1736 22.2318 17.0513 23.6546C16.8909 26.0241 16.7177 26.2678 15.5978 26.4736C14.9484 26.6328 14.1623 26.6667 13.9482 26.571C13.6805 26.4513 13.4352 24.4143 13.3335 22.0562C13.2063 17.8878 13.2006 17.7568 14.5529 17.4623C16.4532 17.0916 16.6434 17.2409 16.9958 19.3257Z" fill="black"/>
</svg>
